<mxfile host="app.diagrams.net" modified="2021-02-09T23:07:02.331Z" agent="5.0 (Windows)" etag="LlnZiUbH1fFEroKV6dJQ" version="14.3.0" type="github">
  <diagram id="UfvzvBY-8uDOD2xJlfd_" name="Page-1">
    <mxGraphModel dx="1447" dy="752" grid="1" gridSize="10" guides="1" tooltips="1" connect="1" arrows="1" fold="1" page="1" pageScale="1" pageWidth="827" pageHeight="1169" math="0" shadow="0">
      <root>
        <mxCell id="0" />
        <mxCell id="1" parent="0" />
        <mxCell id="-bEd97YxeEwS5Az2jaos-1" value="" style="rounded=1;whiteSpace=wrap;html=1;fillColor=#dae8fc;strokeColor=#6c8ebf;" vertex="1" parent="1">
          <mxGeometry x="50" y="70" width="180" height="50" as="geometry" />
        </mxCell>
        <mxCell id="-bEd97YxeEwS5Az2jaos-2" value="SF7" style="ellipse;whiteSpace=wrap;html=1;aspect=fixed;labelBackgroundColor=#FFB366;fillColor=#ffe6cc;strokeColor=#d79b00;" vertex="1" parent="1">
          <mxGeometry x="50" y="90" width="30" height="30" as="geometry" />
        </mxCell>
        <mxCell id="-bEd97YxeEwS5Az2jaos-3" value="SF8" style="ellipse;whiteSpace=wrap;html=1;aspect=fixed;labelBackgroundColor=#FFB366;fillColor=#ffe6cc;strokeColor=#d79b00;" vertex="1" parent="1">
          <mxGeometry x="80" y="90" width="30" height="30" as="geometry" />
        </mxCell>
        <mxCell id="-bEd97YxeEwS5Az2jaos-4" value="SF9" style="ellipse;whiteSpace=wrap;html=1;aspect=fixed;labelBackgroundColor=#FFB366;fillColor=#ffe6cc;strokeColor=#d79b00;" vertex="1" parent="1">
          <mxGeometry x="110" y="90" width="30" height="30" as="geometry" />
        </mxCell>
        <mxCell id="-bEd97YxeEwS5Az2jaos-5" value="868.9 МГц" style="text;html=1;strokeColor=none;fillColor=none;align=center;verticalAlign=middle;whiteSpace=wrap;rounded=0;fontSize=14;fontStyle=1" vertex="1" parent="1">
          <mxGeometry x="110" y="70" width="80" height="20" as="geometry" />
        </mxCell>
        <mxCell id="-bEd97YxeEwS5Az2jaos-12" value="" style="rounded=1;whiteSpace=wrap;html=1;fillColor=#dae8fc;strokeColor=#6c8ebf;" vertex="1" parent="1">
          <mxGeometry x="50" y="130" width="180" height="50" as="geometry" />
        </mxCell>
        <mxCell id="-bEd97YxeEwS5Az2jaos-13" value="SF7" style="ellipse;whiteSpace=wrap;html=1;aspect=fixed;labelBackgroundColor=#FFB366;fillColor=#ffe6cc;strokeColor=#d79b00;" vertex="1" parent="1">
          <mxGeometry x="50" y="150" width="30" height="30" as="geometry" />
        </mxCell>
        <mxCell id="-bEd97YxeEwS5Az2jaos-14" value="SF8" style="ellipse;whiteSpace=wrap;html=1;aspect=fixed;labelBackgroundColor=#FFB366;fillColor=#ffe6cc;strokeColor=#d79b00;" vertex="1" parent="1">
          <mxGeometry x="80" y="150" width="30" height="30" as="geometry" />
        </mxCell>
        <mxCell id="-bEd97YxeEwS5Az2jaos-15" value="SF9" style="ellipse;whiteSpace=wrap;html=1;aspect=fixed;labelBackgroundColor=#FFB366;fillColor=#ffe6cc;strokeColor=#d79b00;" vertex="1" parent="1">
          <mxGeometry x="110" y="150" width="30" height="30" as="geometry" />
        </mxCell>
        <mxCell id="-bEd97YxeEwS5Az2jaos-16" value="869.1 МГц" style="text;html=1;strokeColor=none;fillColor=none;align=center;verticalAlign=middle;whiteSpace=wrap;rounded=0;fontSize=14;fontStyle=1" vertex="1" parent="1">
          <mxGeometry x="110" y="130" width="80" height="20" as="geometry" />
        </mxCell>
        <mxCell id="-bEd97YxeEwS5Az2jaos-20" value="" style="rounded=1;whiteSpace=wrap;html=1;fillColor=#dae8fc;strokeColor=#6c8ebf;" vertex="1" parent="1">
          <mxGeometry x="550" y="70" width="180" height="50" as="geometry" />
        </mxCell>
        <mxCell id="-bEd97YxeEwS5Az2jaos-21" value="SF7" style="ellipse;whiteSpace=wrap;html=1;aspect=fixed;labelBackgroundColor=#FFB366;fillColor=#ffe6cc;strokeColor=#d79b00;" vertex="1" parent="1">
          <mxGeometry x="550" y="90" width="30" height="30" as="geometry" />
        </mxCell>
        <mxCell id="-bEd97YxeEwS5Az2jaos-22" value="SF8" style="ellipse;whiteSpace=wrap;html=1;aspect=fixed;labelBackgroundColor=#FFB366;fillColor=#ffe6cc;strokeColor=#d79b00;" vertex="1" parent="1">
          <mxGeometry x="580" y="90" width="30" height="30" as="geometry" />
        </mxCell>
        <mxCell id="-bEd97YxeEwS5Az2jaos-23" value="SF9" style="ellipse;whiteSpace=wrap;html=1;aspect=fixed;labelBackgroundColor=#FFB366;fillColor=#ffe6cc;strokeColor=#d79b00;" vertex="1" parent="1">
          <mxGeometry x="610" y="90" width="30" height="30" as="geometry" />
        </mxCell>
        <mxCell id="-bEd97YxeEwS5Az2jaos-24" value="868.9 МГц" style="text;html=1;strokeColor=none;fillColor=none;align=center;verticalAlign=middle;whiteSpace=wrap;rounded=0;fontSize=14;fontStyle=1" vertex="1" parent="1">
          <mxGeometry x="610" y="70" width="80" height="20" as="geometry" />
        </mxCell>
        <mxCell id="-bEd97YxeEwS5Az2jaos-25" value="SF10" style="ellipse;whiteSpace=wrap;html=1;aspect=fixed;labelBackgroundColor=#FFB366;fillColor=#ffe6cc;strokeColor=#d79b00;" vertex="1" parent="1">
          <mxGeometry x="640" y="90" width="30" height="30" as="geometry" />
        </mxCell>
        <mxCell id="-bEd97YxeEwS5Az2jaos-26" value="SF11" style="ellipse;whiteSpace=wrap;html=1;aspect=fixed;labelBackgroundColor=#FFB366;fillColor=#ffe6cc;strokeColor=#d79b00;" vertex="1" parent="1">
          <mxGeometry x="670" y="90" width="30" height="30" as="geometry" />
        </mxCell>
        <mxCell id="-bEd97YxeEwS5Az2jaos-27" value="SF12" style="ellipse;whiteSpace=wrap;html=1;aspect=fixed;labelBackgroundColor=#FFB366;fillColor=#ffe6cc;strokeColor=#d79b00;" vertex="1" parent="1">
          <mxGeometry x="700" y="90" width="30" height="30" as="geometry" />
        </mxCell>
        <mxCell id="-bEd97YxeEwS5Az2jaos-28" value="" style="rounded=1;whiteSpace=wrap;html=1;fillColor=#dae8fc;strokeColor=#6c8ebf;" vertex="1" parent="1">
          <mxGeometry x="550" y="130" width="180" height="50" as="geometry" />
        </mxCell>
        <mxCell id="-bEd97YxeEwS5Az2jaos-29" value="SF7" style="ellipse;whiteSpace=wrap;html=1;aspect=fixed;labelBackgroundColor=#FFB366;fillColor=#ffe6cc;strokeColor=#d79b00;" vertex="1" parent="1">
          <mxGeometry x="550" y="150" width="30" height="30" as="geometry" />
        </mxCell>
        <mxCell id="-bEd97YxeEwS5Az2jaos-30" value="SF8" style="ellipse;whiteSpace=wrap;html=1;aspect=fixed;labelBackgroundColor=#FFB366;fillColor=#ffe6cc;strokeColor=#d79b00;" vertex="1" parent="1">
          <mxGeometry x="580" y="150" width="30" height="30" as="geometry" />
        </mxCell>
        <mxCell id="-bEd97YxeEwS5Az2jaos-31" value="SF9" style="ellipse;whiteSpace=wrap;html=1;aspect=fixed;labelBackgroundColor=#FFB366;fillColor=#ffe6cc;strokeColor=#d79b00;" vertex="1" parent="1">
          <mxGeometry x="610" y="150" width="30" height="30" as="geometry" />
        </mxCell>
        <mxCell id="-bEd97YxeEwS5Az2jaos-32" value="869.1 МГц" style="text;html=1;strokeColor=none;fillColor=none;align=center;verticalAlign=middle;whiteSpace=wrap;rounded=0;fontSize=14;fontStyle=1" vertex="1" parent="1">
          <mxGeometry x="610" y="130" width="80" height="20" as="geometry" />
        </mxCell>
        <mxCell id="-bEd97YxeEwS5Az2jaos-33" value="SF10" style="ellipse;whiteSpace=wrap;html=1;aspect=fixed;labelBackgroundColor=#FFB366;fillColor=#ffe6cc;strokeColor=#d79b00;" vertex="1" parent="1">
          <mxGeometry x="640" y="150" width="30" height="30" as="geometry" />
        </mxCell>
        <mxCell id="-bEd97YxeEwS5Az2jaos-34" value="SF11" style="ellipse;whiteSpace=wrap;html=1;aspect=fixed;labelBackgroundColor=#FFB366;fillColor=#ffe6cc;strokeColor=#d79b00;" vertex="1" parent="1">
          <mxGeometry x="670" y="150" width="30" height="30" as="geometry" />
        </mxCell>
        <mxCell id="-bEd97YxeEwS5Az2jaos-35" value="SF12" style="ellipse;whiteSpace=wrap;html=1;aspect=fixed;labelBackgroundColor=#FFB366;fillColor=#ffe6cc;strokeColor=#d79b00;" vertex="1" parent="1">
          <mxGeometry x="700" y="150" width="30" height="30" as="geometry" />
        </mxCell>
        <mxCell id="-bEd97YxeEwS5Az2jaos-52" value="" style="rounded=1;whiteSpace=wrap;html=1;fillColor=#dae8fc;strokeColor=#6c8ebf;" vertex="1" parent="1">
          <mxGeometry x="750" y="70" width="180" height="50" as="geometry" />
        </mxCell>
        <mxCell id="-bEd97YxeEwS5Az2jaos-53" value="SF7" style="ellipse;whiteSpace=wrap;html=1;aspect=fixed;labelBackgroundColor=#FFB366;fillColor=#ffe6cc;strokeColor=#d79b00;" vertex="1" parent="1">
          <mxGeometry x="750" y="90" width="30" height="30" as="geometry" />
        </mxCell>
        <mxCell id="-bEd97YxeEwS5Az2jaos-54" value="SF8" style="ellipse;whiteSpace=wrap;html=1;aspect=fixed;labelBackgroundColor=#FFB366;fillColor=#ffe6cc;strokeColor=#d79b00;" vertex="1" parent="1">
          <mxGeometry x="780" y="90" width="30" height="30" as="geometry" />
        </mxCell>
        <mxCell id="-bEd97YxeEwS5Az2jaos-55" value="SF9" style="ellipse;whiteSpace=wrap;html=1;aspect=fixed;labelBackgroundColor=#FFB366;fillColor=#ffe6cc;strokeColor=#d79b00;" vertex="1" parent="1">
          <mxGeometry x="810" y="90" width="30" height="30" as="geometry" />
        </mxCell>
        <mxCell id="-bEd97YxeEwS5Az2jaos-56" value="868.9 МГц" style="text;html=1;strokeColor=none;fillColor=none;align=center;verticalAlign=middle;whiteSpace=wrap;rounded=0;fontSize=14;fontStyle=1" vertex="1" parent="1">
          <mxGeometry x="810" y="70" width="80" height="20" as="geometry" />
        </mxCell>
        <mxCell id="-bEd97YxeEwS5Az2jaos-57" value="SF10" style="ellipse;whiteSpace=wrap;html=1;aspect=fixed;labelBackgroundColor=#FFB366;fillColor=#ffe6cc;strokeColor=#d79b00;" vertex="1" parent="1">
          <mxGeometry x="840" y="90" width="30" height="30" as="geometry" />
        </mxCell>
        <mxCell id="-bEd97YxeEwS5Az2jaos-58" value="SF11" style="ellipse;whiteSpace=wrap;html=1;aspect=fixed;labelBackgroundColor=#FFB366;fillColor=#ffe6cc;strokeColor=#d79b00;" vertex="1" parent="1">
          <mxGeometry x="870" y="90" width="30" height="30" as="geometry" />
        </mxCell>
        <mxCell id="-bEd97YxeEwS5Az2jaos-59" value="SF12" style="ellipse;whiteSpace=wrap;html=1;aspect=fixed;labelBackgroundColor=#FFB366;fillColor=#ffe6cc;strokeColor=#d79b00;" vertex="1" parent="1">
          <mxGeometry x="900" y="90" width="30" height="30" as="geometry" />
        </mxCell>
        <mxCell id="-bEd97YxeEwS5Az2jaos-60" value="" style="rounded=1;whiteSpace=wrap;html=1;fillColor=#dae8fc;strokeColor=#6c8ebf;" vertex="1" parent="1">
          <mxGeometry x="750" y="130" width="180" height="50" as="geometry" />
        </mxCell>
        <mxCell id="-bEd97YxeEwS5Az2jaos-61" value="SF7" style="ellipse;whiteSpace=wrap;html=1;aspect=fixed;labelBackgroundColor=#FFB366;fillColor=#ffe6cc;strokeColor=#d79b00;" vertex="1" parent="1">
          <mxGeometry x="750" y="150" width="30" height="30" as="geometry" />
        </mxCell>
        <mxCell id="-bEd97YxeEwS5Az2jaos-62" value="SF8" style="ellipse;whiteSpace=wrap;html=1;aspect=fixed;labelBackgroundColor=#FFB366;fillColor=#ffe6cc;strokeColor=#d79b00;" vertex="1" parent="1">
          <mxGeometry x="780" y="150" width="30" height="30" as="geometry" />
        </mxCell>
        <mxCell id="-bEd97YxeEwS5Az2jaos-63" value="SF9" style="ellipse;whiteSpace=wrap;html=1;aspect=fixed;labelBackgroundColor=#FFB366;fillColor=#ffe6cc;strokeColor=#d79b00;" vertex="1" parent="1">
          <mxGeometry x="810" y="150" width="30" height="30" as="geometry" />
        </mxCell>
        <mxCell id="-bEd97YxeEwS5Az2jaos-64" value="869.1 МГц" style="text;html=1;strokeColor=none;fillColor=none;align=center;verticalAlign=middle;whiteSpace=wrap;rounded=0;fontSize=14;fontStyle=1" vertex="1" parent="1">
          <mxGeometry x="810" y="130" width="80" height="20" as="geometry" />
        </mxCell>
        <mxCell id="-bEd97YxeEwS5Az2jaos-65" value="SF10" style="ellipse;whiteSpace=wrap;html=1;aspect=fixed;labelBackgroundColor=#FFB366;fillColor=#ffe6cc;strokeColor=#d79b00;" vertex="1" parent="1">
          <mxGeometry x="840" y="150" width="30" height="30" as="geometry" />
        </mxCell>
        <mxCell id="-bEd97YxeEwS5Az2jaos-66" value="SF11" style="ellipse;whiteSpace=wrap;html=1;aspect=fixed;labelBackgroundColor=#FFB366;fillColor=#ffe6cc;strokeColor=#d79b00;" vertex="1" parent="1">
          <mxGeometry x="870" y="150" width="30" height="30" as="geometry" />
        </mxCell>
        <mxCell id="-bEd97YxeEwS5Az2jaos-67" value="SF12" style="ellipse;whiteSpace=wrap;html=1;aspect=fixed;labelBackgroundColor=#FFB366;fillColor=#ffe6cc;strokeColor=#d79b00;" vertex="1" parent="1">
          <mxGeometry x="900" y="150" width="30" height="30" as="geometry" />
        </mxCell>
        <mxCell id="-bEd97YxeEwS5Az2jaos-68" value="" style="rounded=1;whiteSpace=wrap;html=1;fillColor=#dae8fc;strokeColor=#6c8ebf;" vertex="1" parent="1">
          <mxGeometry x="750" y="70" width="180" height="50" as="geometry" />
        </mxCell>
        <mxCell id="-bEd97YxeEwS5Az2jaos-69" value="SF7" style="ellipse;whiteSpace=wrap;html=1;aspect=fixed;labelBackgroundColor=#FFB366;fillColor=#ffe6cc;strokeColor=#d79b00;" vertex="1" parent="1">
          <mxGeometry x="750" y="90" width="30" height="30" as="geometry" />
        </mxCell>
        <mxCell id="-bEd97YxeEwS5Az2jaos-70" value="SF8" style="ellipse;whiteSpace=wrap;html=1;aspect=fixed;labelBackgroundColor=#FFB366;fillColor=#ffe6cc;strokeColor=#d79b00;" vertex="1" parent="1">
          <mxGeometry x="780" y="90" width="30" height="30" as="geometry" />
        </mxCell>
        <mxCell id="-bEd97YxeEwS5Az2jaos-71" value="SF9" style="ellipse;whiteSpace=wrap;html=1;aspect=fixed;labelBackgroundColor=#FFB366;fillColor=#ffe6cc;strokeColor=#d79b00;" vertex="1" parent="1">
          <mxGeometry x="810" y="90" width="30" height="30" as="geometry" />
        </mxCell>
        <mxCell id="-bEd97YxeEwS5Az2jaos-72" value="868.9 МГц" style="text;html=1;strokeColor=none;fillColor=none;align=center;verticalAlign=middle;whiteSpace=wrap;rounded=0;fontSize=14;fontStyle=1" vertex="1" parent="1">
          <mxGeometry x="810" y="70" width="80" height="20" as="geometry" />
        </mxCell>
        <mxCell id="-bEd97YxeEwS5Az2jaos-73" value="SF10" style="ellipse;whiteSpace=wrap;html=1;aspect=fixed;labelBackgroundColor=#FFB366;fillColor=#ffe6cc;strokeColor=#d79b00;" vertex="1" parent="1">
          <mxGeometry x="840" y="90" width="30" height="30" as="geometry" />
        </mxCell>
        <mxCell id="-bEd97YxeEwS5Az2jaos-74" value="SF11" style="ellipse;whiteSpace=wrap;html=1;aspect=fixed;labelBackgroundColor=#FFB366;fillColor=#ffe6cc;strokeColor=#d79b00;" vertex="1" parent="1">
          <mxGeometry x="870" y="90" width="30" height="30" as="geometry" />
        </mxCell>
        <mxCell id="-bEd97YxeEwS5Az2jaos-75" value="SF12" style="ellipse;whiteSpace=wrap;html=1;aspect=fixed;labelBackgroundColor=#FFB366;fillColor=#ffe6cc;strokeColor=#d79b00;" vertex="1" parent="1">
          <mxGeometry x="900" y="90" width="30" height="30" as="geometry" />
        </mxCell>
        <mxCell id="-bEd97YxeEwS5Az2jaos-76" value="" style="rounded=1;whiteSpace=wrap;html=1;fillColor=#dae8fc;strokeColor=#6c8ebf;" vertex="1" parent="1">
          <mxGeometry x="750" y="130" width="180" height="50" as="geometry" />
        </mxCell>
        <mxCell id="-bEd97YxeEwS5Az2jaos-77" value="SF7" style="ellipse;whiteSpace=wrap;html=1;aspect=fixed;labelBackgroundColor=#FFB366;fillColor=#ffe6cc;strokeColor=#d79b00;" vertex="1" parent="1">
          <mxGeometry x="750" y="150" width="30" height="30" as="geometry" />
        </mxCell>
        <mxCell id="-bEd97YxeEwS5Az2jaos-78" value="SF8" style="ellipse;whiteSpace=wrap;html=1;aspect=fixed;labelBackgroundColor=#FFB366;fillColor=#ffe6cc;strokeColor=#d79b00;" vertex="1" parent="1">
          <mxGeometry x="780" y="150" width="30" height="30" as="geometry" />
        </mxCell>
        <mxCell id="-bEd97YxeEwS5Az2jaos-79" value="SF9" style="ellipse;whiteSpace=wrap;html=1;aspect=fixed;labelBackgroundColor=#FFB366;fillColor=#ffe6cc;strokeColor=#d79b00;" vertex="1" parent="1">
          <mxGeometry x="810" y="150" width="30" height="30" as="geometry" />
        </mxCell>
        <mxCell id="-bEd97YxeEwS5Az2jaos-80" value="869.1 МГц" style="text;html=1;strokeColor=none;fillColor=none;align=center;verticalAlign=middle;whiteSpace=wrap;rounded=0;fontSize=14;fontStyle=1" vertex="1" parent="1">
          <mxGeometry x="810" y="130" width="80" height="20" as="geometry" />
        </mxCell>
        <mxCell id="-bEd97YxeEwS5Az2jaos-81" value="SF10" style="ellipse;whiteSpace=wrap;html=1;aspect=fixed;labelBackgroundColor=#FFB366;fillColor=#ffe6cc;strokeColor=#d79b00;" vertex="1" parent="1">
          <mxGeometry x="840" y="150" width="30" height="30" as="geometry" />
        </mxCell>
        <mxCell id="-bEd97YxeEwS5Az2jaos-82" value="SF11" style="ellipse;whiteSpace=wrap;html=1;aspect=fixed;labelBackgroundColor=#FFB366;fillColor=#ffe6cc;strokeColor=#d79b00;" vertex="1" parent="1">
          <mxGeometry x="870" y="150" width="30" height="30" as="geometry" />
        </mxCell>
        <mxCell id="-bEd97YxeEwS5Az2jaos-83" value="SF12" style="ellipse;whiteSpace=wrap;html=1;aspect=fixed;labelBackgroundColor=#FFB366;fillColor=#ffe6cc;strokeColor=#d79b00;" vertex="1" parent="1">
          <mxGeometry x="900" y="150" width="30" height="30" as="geometry" />
        </mxCell>
        <mxCell id="-bEd97YxeEwS5Az2jaos-84" value="" style="rounded=1;whiteSpace=wrap;html=1;fillColor=#dae8fc;strokeColor=#6c8ebf;" vertex="1" parent="1">
          <mxGeometry x="750" y="70" width="180" height="50" as="geometry" />
        </mxCell>
        <mxCell id="-bEd97YxeEwS5Az2jaos-85" value="SF7" style="ellipse;whiteSpace=wrap;html=1;aspect=fixed;labelBackgroundColor=#FFB366;fillColor=#ffe6cc;strokeColor=#d79b00;" vertex="1" parent="1">
          <mxGeometry x="750" y="90" width="30" height="30" as="geometry" />
        </mxCell>
        <mxCell id="-bEd97YxeEwS5Az2jaos-86" value="SF8" style="ellipse;whiteSpace=wrap;html=1;aspect=fixed;labelBackgroundColor=#FFB366;fillColor=#ffe6cc;strokeColor=#d79b00;" vertex="1" parent="1">
          <mxGeometry x="780" y="90" width="30" height="30" as="geometry" />
        </mxCell>
        <mxCell id="-bEd97YxeEwS5Az2jaos-87" value="SF9" style="ellipse;whiteSpace=wrap;html=1;aspect=fixed;labelBackgroundColor=#FFB366;fillColor=#ffe6cc;strokeColor=#d79b00;" vertex="1" parent="1">
          <mxGeometry x="810" y="90" width="30" height="30" as="geometry" />
        </mxCell>
        <mxCell id="-bEd97YxeEwS5Az2jaos-88" value="868.9 МГц" style="text;html=1;strokeColor=none;fillColor=none;align=center;verticalAlign=middle;whiteSpace=wrap;rounded=0;fontSize=14;fontStyle=1" vertex="1" parent="1">
          <mxGeometry x="810" y="70" width="80" height="20" as="geometry" />
        </mxCell>
        <mxCell id="-bEd97YxeEwS5Az2jaos-89" value="SF10" style="ellipse;whiteSpace=wrap;html=1;aspect=fixed;labelBackgroundColor=#FFB366;fillColor=#ffe6cc;strokeColor=#d79b00;" vertex="1" parent="1">
          <mxGeometry x="840" y="90" width="30" height="30" as="geometry" />
        </mxCell>
        <mxCell id="-bEd97YxeEwS5Az2jaos-90" value="SF11" style="ellipse;whiteSpace=wrap;html=1;aspect=fixed;labelBackgroundColor=#FFB366;fillColor=#ffe6cc;strokeColor=#d79b00;" vertex="1" parent="1">
          <mxGeometry x="870" y="90" width="30" height="30" as="geometry" />
        </mxCell>
        <mxCell id="-bEd97YxeEwS5Az2jaos-91" value="SF12" style="ellipse;whiteSpace=wrap;html=1;aspect=fixed;labelBackgroundColor=#FFB366;fillColor=#ffe6cc;strokeColor=#d79b00;" vertex="1" parent="1">
          <mxGeometry x="900" y="90" width="30" height="30" as="geometry" />
        </mxCell>
        <mxCell id="-bEd97YxeEwS5Az2jaos-92" value="" style="rounded=1;whiteSpace=wrap;html=1;fillColor=#dae8fc;strokeColor=#6c8ebf;" vertex="1" parent="1">
          <mxGeometry x="750" y="130" width="180" height="50" as="geometry" />
        </mxCell>
        <mxCell id="-bEd97YxeEwS5Az2jaos-93" value="SF7" style="ellipse;whiteSpace=wrap;html=1;aspect=fixed;labelBackgroundColor=#FFB366;fillColor=#ffe6cc;strokeColor=#d79b00;" vertex="1" parent="1">
          <mxGeometry x="750" y="150" width="30" height="30" as="geometry" />
        </mxCell>
        <mxCell id="-bEd97YxeEwS5Az2jaos-94" value="SF8" style="ellipse;whiteSpace=wrap;html=1;aspect=fixed;labelBackgroundColor=#FFB366;fillColor=#ffe6cc;strokeColor=#d79b00;" vertex="1" parent="1">
          <mxGeometry x="780" y="150" width="30" height="30" as="geometry" />
        </mxCell>
        <mxCell id="-bEd97YxeEwS5Az2jaos-95" value="SF9" style="ellipse;whiteSpace=wrap;html=1;aspect=fixed;labelBackgroundColor=#FFB366;fillColor=#ffe6cc;strokeColor=#d79b00;" vertex="1" parent="1">
          <mxGeometry x="810" y="150" width="30" height="30" as="geometry" />
        </mxCell>
        <mxCell id="-bEd97YxeEwS5Az2jaos-96" value="869.1 МГц" style="text;html=1;strokeColor=none;fillColor=none;align=center;verticalAlign=middle;whiteSpace=wrap;rounded=0;fontSize=14;fontStyle=1" vertex="1" parent="1">
          <mxGeometry x="810" y="130" width="80" height="20" as="geometry" />
        </mxCell>
        <mxCell id="-bEd97YxeEwS5Az2jaos-97" value="SF10" style="ellipse;whiteSpace=wrap;html=1;aspect=fixed;labelBackgroundColor=#FFB366;fillColor=#ffe6cc;strokeColor=#d79b00;" vertex="1" parent="1">
          <mxGeometry x="840" y="150" width="30" height="30" as="geometry" />
        </mxCell>
        <mxCell id="-bEd97YxeEwS5Az2jaos-98" value="SF11" style="ellipse;whiteSpace=wrap;html=1;aspect=fixed;labelBackgroundColor=#FFB366;fillColor=#ffe6cc;strokeColor=#d79b00;" vertex="1" parent="1">
          <mxGeometry x="870" y="150" width="30" height="30" as="geometry" />
        </mxCell>
        <mxCell id="-bEd97YxeEwS5Az2jaos-99" value="SF12" style="ellipse;whiteSpace=wrap;html=1;aspect=fixed;labelBackgroundColor=#FFB366;fillColor=#ffe6cc;strokeColor=#d79b00;" vertex="1" parent="1">
          <mxGeometry x="900" y="150" width="30" height="30" as="geometry" />
        </mxCell>
        <mxCell id="-bEd97YxeEwS5Az2jaos-100" value="" style="rounded=1;whiteSpace=wrap;html=1;fillColor=#dae8fc;strokeColor=#6c8ebf;" vertex="1" parent="1">
          <mxGeometry x="750" y="70" width="180" height="50" as="geometry" />
        </mxCell>
        <mxCell id="-bEd97YxeEwS5Az2jaos-101" value="SF7" style="ellipse;whiteSpace=wrap;html=1;aspect=fixed;labelBackgroundColor=#FFB366;fillColor=#ffe6cc;strokeColor=#d79b00;" vertex="1" parent="1">
          <mxGeometry x="750" y="90" width="30" height="30" as="geometry" />
        </mxCell>
        <mxCell id="-bEd97YxeEwS5Az2jaos-102" value="SF8" style="ellipse;whiteSpace=wrap;html=1;aspect=fixed;labelBackgroundColor=#FFB366;fillColor=#ffe6cc;strokeColor=#d79b00;" vertex="1" parent="1">
          <mxGeometry x="780" y="90" width="30" height="30" as="geometry" />
        </mxCell>
        <mxCell id="-bEd97YxeEwS5Az2jaos-103" value="SF9" style="ellipse;whiteSpace=wrap;html=1;aspect=fixed;labelBackgroundColor=#FFB366;fillColor=#ffe6cc;strokeColor=#d79b00;" vertex="1" parent="1">
          <mxGeometry x="810" y="90" width="30" height="30" as="geometry" />
        </mxCell>
        <mxCell id="-bEd97YxeEwS5Az2jaos-104" value="867.0 МГц" style="text;html=1;strokeColor=none;fillColor=none;align=center;verticalAlign=middle;whiteSpace=wrap;rounded=0;fontSize=14;fontStyle=1" vertex="1" parent="1">
          <mxGeometry x="810" y="70" width="80" height="20" as="geometry" />
        </mxCell>
        <mxCell id="-bEd97YxeEwS5Az2jaos-105" value="SF10" style="ellipse;whiteSpace=wrap;html=1;aspect=fixed;labelBackgroundColor=#FFB366;fillColor=#ffe6cc;strokeColor=#d79b00;" vertex="1" parent="1">
          <mxGeometry x="840" y="90" width="30" height="30" as="geometry" />
        </mxCell>
        <mxCell id="-bEd97YxeEwS5Az2jaos-106" value="SF11" style="ellipse;whiteSpace=wrap;html=1;aspect=fixed;labelBackgroundColor=#FFB366;fillColor=#ffe6cc;strokeColor=#d79b00;" vertex="1" parent="1">
          <mxGeometry x="870" y="90" width="30" height="30" as="geometry" />
        </mxCell>
        <mxCell id="-bEd97YxeEwS5Az2jaos-107" value="SF12" style="ellipse;whiteSpace=wrap;html=1;aspect=fixed;labelBackgroundColor=#FFB366;fillColor=#ffe6cc;strokeColor=#d79b00;" vertex="1" parent="1">
          <mxGeometry x="900" y="90" width="30" height="30" as="geometry" />
        </mxCell>
        <mxCell id="-bEd97YxeEwS5Az2jaos-108" value="" style="rounded=1;whiteSpace=wrap;html=1;fillColor=#dae8fc;strokeColor=#6c8ebf;" vertex="1" parent="1">
          <mxGeometry x="750" y="130" width="180" height="50" as="geometry" />
        </mxCell>
        <mxCell id="-bEd97YxeEwS5Az2jaos-109" value="SF7" style="ellipse;whiteSpace=wrap;html=1;aspect=fixed;labelBackgroundColor=#FFB366;fillColor=#ffe6cc;strokeColor=#d79b00;" vertex="1" parent="1">
          <mxGeometry x="750" y="150" width="30" height="30" as="geometry" />
        </mxCell>
        <mxCell id="-bEd97YxeEwS5Az2jaos-110" value="SF8" style="ellipse;whiteSpace=wrap;html=1;aspect=fixed;labelBackgroundColor=#FFB366;fillColor=#ffe6cc;strokeColor=#d79b00;" vertex="1" parent="1">
          <mxGeometry x="780" y="150" width="30" height="30" as="geometry" />
        </mxCell>
        <mxCell id="-bEd97YxeEwS5Az2jaos-111" value="SF9" style="ellipse;whiteSpace=wrap;html=1;aspect=fixed;labelBackgroundColor=#FFB366;fillColor=#ffe6cc;strokeColor=#d79b00;" vertex="1" parent="1">
          <mxGeometry x="810" y="150" width="30" height="30" as="geometry" />
        </mxCell>
        <mxCell id="-bEd97YxeEwS5Az2jaos-112" value="867.2 МГц" style="text;html=1;strokeColor=none;fillColor=none;align=center;verticalAlign=middle;whiteSpace=wrap;rounded=0;fontSize=14;fontStyle=1" vertex="1" parent="1">
          <mxGeometry x="810" y="130" width="80" height="20" as="geometry" />
        </mxCell>
        <mxCell id="-bEd97YxeEwS5Az2jaos-113" value="SF10" style="ellipse;whiteSpace=wrap;html=1;aspect=fixed;labelBackgroundColor=#FFB366;fillColor=#ffe6cc;strokeColor=#d79b00;" vertex="1" parent="1">
          <mxGeometry x="840" y="150" width="30" height="30" as="geometry" />
        </mxCell>
        <mxCell id="-bEd97YxeEwS5Az2jaos-114" value="SF11" style="ellipse;whiteSpace=wrap;html=1;aspect=fixed;labelBackgroundColor=#FFB366;fillColor=#ffe6cc;strokeColor=#d79b00;" vertex="1" parent="1">
          <mxGeometry x="870" y="150" width="30" height="30" as="geometry" />
        </mxCell>
        <mxCell id="-bEd97YxeEwS5Az2jaos-115" value="SF12" style="ellipse;whiteSpace=wrap;html=1;aspect=fixed;labelBackgroundColor=#FFB366;fillColor=#ffe6cc;strokeColor=#d79b00;" vertex="1" parent="1">
          <mxGeometry x="900" y="150" width="30" height="30" as="geometry" />
        </mxCell>
        <mxCell id="-bEd97YxeEwS5Az2jaos-116" value="" style="rounded=1;whiteSpace=wrap;html=1;fillColor=#dae8fc;strokeColor=#6c8ebf;" vertex="1" parent="1">
          <mxGeometry x="950" y="70" width="180" height="50" as="geometry" />
        </mxCell>
        <mxCell id="-bEd97YxeEwS5Az2jaos-117" value="SF7" style="ellipse;whiteSpace=wrap;html=1;aspect=fixed;labelBackgroundColor=#FFB366;fillColor=#ffe6cc;strokeColor=#d79b00;" vertex="1" parent="1">
          <mxGeometry x="950" y="90" width="30" height="30" as="geometry" />
        </mxCell>
        <mxCell id="-bEd97YxeEwS5Az2jaos-118" value="SF8" style="ellipse;whiteSpace=wrap;html=1;aspect=fixed;labelBackgroundColor=#FFB366;fillColor=#ffe6cc;strokeColor=#d79b00;" vertex="1" parent="1">
          <mxGeometry x="980" y="90" width="30" height="30" as="geometry" />
        </mxCell>
        <mxCell id="-bEd97YxeEwS5Az2jaos-119" value="SF9" style="ellipse;whiteSpace=wrap;html=1;aspect=fixed;labelBackgroundColor=#FFB366;fillColor=#ffe6cc;strokeColor=#d79b00;" vertex="1" parent="1">
          <mxGeometry x="1010" y="90" width="30" height="30" as="geometry" />
        </mxCell>
        <mxCell id="-bEd97YxeEwS5Az2jaos-120" value="868.9 МГц" style="text;html=1;strokeColor=none;fillColor=none;align=center;verticalAlign=middle;whiteSpace=wrap;rounded=0;fontSize=14;fontStyle=1" vertex="1" parent="1">
          <mxGeometry x="1010" y="70" width="80" height="20" as="geometry" />
        </mxCell>
        <mxCell id="-bEd97YxeEwS5Az2jaos-121" value="SF10" style="ellipse;whiteSpace=wrap;html=1;aspect=fixed;labelBackgroundColor=#FFB366;fillColor=#ffe6cc;strokeColor=#d79b00;" vertex="1" parent="1">
          <mxGeometry x="1040" y="90" width="30" height="30" as="geometry" />
        </mxCell>
        <mxCell id="-bEd97YxeEwS5Az2jaos-122" value="SF11" style="ellipse;whiteSpace=wrap;html=1;aspect=fixed;labelBackgroundColor=#FFB366;fillColor=#ffe6cc;strokeColor=#d79b00;" vertex="1" parent="1">
          <mxGeometry x="1070" y="90" width="30" height="30" as="geometry" />
        </mxCell>
        <mxCell id="-bEd97YxeEwS5Az2jaos-123" value="SF12" style="ellipse;whiteSpace=wrap;html=1;aspect=fixed;labelBackgroundColor=#FFB366;fillColor=#ffe6cc;strokeColor=#d79b00;" vertex="1" parent="1">
          <mxGeometry x="1100" y="90" width="30" height="30" as="geometry" />
        </mxCell>
        <mxCell id="-bEd97YxeEwS5Az2jaos-124" value="" style="rounded=1;whiteSpace=wrap;html=1;fillColor=#dae8fc;strokeColor=#6c8ebf;" vertex="1" parent="1">
          <mxGeometry x="950" y="130" width="180" height="50" as="geometry" />
        </mxCell>
        <mxCell id="-bEd97YxeEwS5Az2jaos-125" value="SF7" style="ellipse;whiteSpace=wrap;html=1;aspect=fixed;labelBackgroundColor=#FFB366;fillColor=#ffe6cc;strokeColor=#d79b00;" vertex="1" parent="1">
          <mxGeometry x="950" y="150" width="30" height="30" as="geometry" />
        </mxCell>
        <mxCell id="-bEd97YxeEwS5Az2jaos-126" value="SF8" style="ellipse;whiteSpace=wrap;html=1;aspect=fixed;labelBackgroundColor=#FFB366;fillColor=#ffe6cc;strokeColor=#d79b00;" vertex="1" parent="1">
          <mxGeometry x="980" y="150" width="30" height="30" as="geometry" />
        </mxCell>
        <mxCell id="-bEd97YxeEwS5Az2jaos-127" value="SF9" style="ellipse;whiteSpace=wrap;html=1;aspect=fixed;labelBackgroundColor=#FFB366;fillColor=#ffe6cc;strokeColor=#d79b00;" vertex="1" parent="1">
          <mxGeometry x="1010" y="150" width="30" height="30" as="geometry" />
        </mxCell>
        <mxCell id="-bEd97YxeEwS5Az2jaos-128" value="869.1 МГц" style="text;html=1;strokeColor=none;fillColor=none;align=center;verticalAlign=middle;whiteSpace=wrap;rounded=0;fontSize=14;fontStyle=1" vertex="1" parent="1">
          <mxGeometry x="1010" y="130" width="80" height="20" as="geometry" />
        </mxCell>
        <mxCell id="-bEd97YxeEwS5Az2jaos-129" value="SF10" style="ellipse;whiteSpace=wrap;html=1;aspect=fixed;labelBackgroundColor=#FFB366;fillColor=#ffe6cc;strokeColor=#d79b00;" vertex="1" parent="1">
          <mxGeometry x="1040" y="150" width="30" height="30" as="geometry" />
        </mxCell>
        <mxCell id="-bEd97YxeEwS5Az2jaos-130" value="SF11" style="ellipse;whiteSpace=wrap;html=1;aspect=fixed;labelBackgroundColor=#FFB366;fillColor=#ffe6cc;strokeColor=#d79b00;" vertex="1" parent="1">
          <mxGeometry x="1070" y="150" width="30" height="30" as="geometry" />
        </mxCell>
        <mxCell id="-bEd97YxeEwS5Az2jaos-131" value="SF12" style="ellipse;whiteSpace=wrap;html=1;aspect=fixed;labelBackgroundColor=#FFB366;fillColor=#ffe6cc;strokeColor=#d79b00;" vertex="1" parent="1">
          <mxGeometry x="1100" y="150" width="30" height="30" as="geometry" />
        </mxCell>
        <mxCell id="-bEd97YxeEwS5Az2jaos-132" value="" style="rounded=1;whiteSpace=wrap;html=1;fillColor=#dae8fc;strokeColor=#6c8ebf;" vertex="1" parent="1">
          <mxGeometry x="950" y="70" width="180" height="50" as="geometry" />
        </mxCell>
        <mxCell id="-bEd97YxeEwS5Az2jaos-133" value="SF7" style="ellipse;whiteSpace=wrap;html=1;aspect=fixed;labelBackgroundColor=#FFB366;fillColor=#ffe6cc;strokeColor=#d79b00;" vertex="1" parent="1">
          <mxGeometry x="950" y="90" width="30" height="30" as="geometry" />
        </mxCell>
        <mxCell id="-bEd97YxeEwS5Az2jaos-134" value="SF8" style="ellipse;whiteSpace=wrap;html=1;aspect=fixed;labelBackgroundColor=#FFB366;fillColor=#ffe6cc;strokeColor=#d79b00;" vertex="1" parent="1">
          <mxGeometry x="980" y="90" width="30" height="30" as="geometry" />
        </mxCell>
        <mxCell id="-bEd97YxeEwS5Az2jaos-135" value="SF9" style="ellipse;whiteSpace=wrap;html=1;aspect=fixed;labelBackgroundColor=#FFB366;fillColor=#ffe6cc;strokeColor=#d79b00;" vertex="1" parent="1">
          <mxGeometry x="1010" y="90" width="30" height="30" as="geometry" />
        </mxCell>
        <mxCell id="-bEd97YxeEwS5Az2jaos-136" value="868.9 МГц" style="text;html=1;strokeColor=none;fillColor=none;align=center;verticalAlign=middle;whiteSpace=wrap;rounded=0;fontSize=14;fontStyle=1" vertex="1" parent="1">
          <mxGeometry x="1010" y="70" width="80" height="20" as="geometry" />
        </mxCell>
        <mxCell id="-bEd97YxeEwS5Az2jaos-137" value="SF10" style="ellipse;whiteSpace=wrap;html=1;aspect=fixed;labelBackgroundColor=#FFB366;fillColor=#ffe6cc;strokeColor=#d79b00;" vertex="1" parent="1">
          <mxGeometry x="1040" y="90" width="30" height="30" as="geometry" />
        </mxCell>
        <mxCell id="-bEd97YxeEwS5Az2jaos-138" value="SF11" style="ellipse;whiteSpace=wrap;html=1;aspect=fixed;labelBackgroundColor=#FFB366;fillColor=#ffe6cc;strokeColor=#d79b00;" vertex="1" parent="1">
          <mxGeometry x="1070" y="90" width="30" height="30" as="geometry" />
        </mxCell>
        <mxCell id="-bEd97YxeEwS5Az2jaos-139" value="SF12" style="ellipse;whiteSpace=wrap;html=1;aspect=fixed;labelBackgroundColor=#FFB366;fillColor=#ffe6cc;strokeColor=#d79b00;" vertex="1" parent="1">
          <mxGeometry x="1100" y="90" width="30" height="30" as="geometry" />
        </mxCell>
        <mxCell id="-bEd97YxeEwS5Az2jaos-140" value="" style="rounded=1;whiteSpace=wrap;html=1;fillColor=#dae8fc;strokeColor=#6c8ebf;" vertex="1" parent="1">
          <mxGeometry x="950" y="130" width="180" height="50" as="geometry" />
        </mxCell>
        <mxCell id="-bEd97YxeEwS5Az2jaos-141" value="SF7" style="ellipse;whiteSpace=wrap;html=1;aspect=fixed;labelBackgroundColor=#FFB366;fillColor=#ffe6cc;strokeColor=#d79b00;" vertex="1" parent="1">
          <mxGeometry x="950" y="150" width="30" height="30" as="geometry" />
        </mxCell>
        <mxCell id="-bEd97YxeEwS5Az2jaos-142" value="SF8" style="ellipse;whiteSpace=wrap;html=1;aspect=fixed;labelBackgroundColor=#FFB366;fillColor=#ffe6cc;strokeColor=#d79b00;" vertex="1" parent="1">
          <mxGeometry x="980" y="150" width="30" height="30" as="geometry" />
        </mxCell>
        <mxCell id="-bEd97YxeEwS5Az2jaos-143" value="SF9" style="ellipse;whiteSpace=wrap;html=1;aspect=fixed;labelBackgroundColor=#FFB366;fillColor=#ffe6cc;strokeColor=#d79b00;" vertex="1" parent="1">
          <mxGeometry x="1010" y="150" width="30" height="30" as="geometry" />
        </mxCell>
        <mxCell id="-bEd97YxeEwS5Az2jaos-144" value="869.1 МГц" style="text;html=1;strokeColor=none;fillColor=none;align=center;verticalAlign=middle;whiteSpace=wrap;rounded=0;fontSize=14;fontStyle=1" vertex="1" parent="1">
          <mxGeometry x="1010" y="130" width="80" height="20" as="geometry" />
        </mxCell>
        <mxCell id="-bEd97YxeEwS5Az2jaos-145" value="SF10" style="ellipse;whiteSpace=wrap;html=1;aspect=fixed;labelBackgroundColor=#FFB366;fillColor=#ffe6cc;strokeColor=#d79b00;" vertex="1" parent="1">
          <mxGeometry x="1040" y="150" width="30" height="30" as="geometry" />
        </mxCell>
        <mxCell id="-bEd97YxeEwS5Az2jaos-146" value="SF11" style="ellipse;whiteSpace=wrap;html=1;aspect=fixed;labelBackgroundColor=#FFB366;fillColor=#ffe6cc;strokeColor=#d79b00;" vertex="1" parent="1">
          <mxGeometry x="1070" y="150" width="30" height="30" as="geometry" />
        </mxCell>
        <mxCell id="-bEd97YxeEwS5Az2jaos-147" value="SF12" style="ellipse;whiteSpace=wrap;html=1;aspect=fixed;labelBackgroundColor=#FFB366;fillColor=#ffe6cc;strokeColor=#d79b00;" vertex="1" parent="1">
          <mxGeometry x="1100" y="150" width="30" height="30" as="geometry" />
        </mxCell>
        <mxCell id="-bEd97YxeEwS5Az2jaos-148" value="" style="rounded=1;whiteSpace=wrap;html=1;fillColor=#dae8fc;strokeColor=#6c8ebf;" vertex="1" parent="1">
          <mxGeometry x="950" y="70" width="180" height="50" as="geometry" />
        </mxCell>
        <mxCell id="-bEd97YxeEwS5Az2jaos-149" value="SF7" style="ellipse;whiteSpace=wrap;html=1;aspect=fixed;labelBackgroundColor=#FFB366;fillColor=#ffe6cc;strokeColor=#d79b00;" vertex="1" parent="1">
          <mxGeometry x="950" y="90" width="30" height="30" as="geometry" />
        </mxCell>
        <mxCell id="-bEd97YxeEwS5Az2jaos-150" value="SF8" style="ellipse;whiteSpace=wrap;html=1;aspect=fixed;labelBackgroundColor=#FFB366;fillColor=#ffe6cc;strokeColor=#d79b00;" vertex="1" parent="1">
          <mxGeometry x="980" y="90" width="30" height="30" as="geometry" />
        </mxCell>
        <mxCell id="-bEd97YxeEwS5Az2jaos-151" value="SF9" style="ellipse;whiteSpace=wrap;html=1;aspect=fixed;labelBackgroundColor=#FFB366;fillColor=#ffe6cc;strokeColor=#d79b00;" vertex="1" parent="1">
          <mxGeometry x="1010" y="90" width="30" height="30" as="geometry" />
        </mxCell>
        <mxCell id="-bEd97YxeEwS5Az2jaos-152" value="868.9 МГц" style="text;html=1;strokeColor=none;fillColor=none;align=center;verticalAlign=middle;whiteSpace=wrap;rounded=0;fontSize=14;fontStyle=1" vertex="1" parent="1">
          <mxGeometry x="1010" y="70" width="80" height="20" as="geometry" />
        </mxCell>
        <mxCell id="-bEd97YxeEwS5Az2jaos-153" value="SF10" style="ellipse;whiteSpace=wrap;html=1;aspect=fixed;labelBackgroundColor=#FFB366;fillColor=#ffe6cc;strokeColor=#d79b00;" vertex="1" parent="1">
          <mxGeometry x="1040" y="90" width="30" height="30" as="geometry" />
        </mxCell>
        <mxCell id="-bEd97YxeEwS5Az2jaos-154" value="SF11" style="ellipse;whiteSpace=wrap;html=1;aspect=fixed;labelBackgroundColor=#FFB366;fillColor=#ffe6cc;strokeColor=#d79b00;" vertex="1" parent="1">
          <mxGeometry x="1070" y="90" width="30" height="30" as="geometry" />
        </mxCell>
        <mxCell id="-bEd97YxeEwS5Az2jaos-155" value="SF12" style="ellipse;whiteSpace=wrap;html=1;aspect=fixed;labelBackgroundColor=#FFB366;fillColor=#ffe6cc;strokeColor=#d79b00;" vertex="1" parent="1">
          <mxGeometry x="1100" y="90" width="30" height="30" as="geometry" />
        </mxCell>
        <mxCell id="-bEd97YxeEwS5Az2jaos-156" value="" style="rounded=1;whiteSpace=wrap;html=1;fillColor=#dae8fc;strokeColor=#6c8ebf;" vertex="1" parent="1">
          <mxGeometry x="950" y="130" width="180" height="50" as="geometry" />
        </mxCell>
        <mxCell id="-bEd97YxeEwS5Az2jaos-157" value="SF7" style="ellipse;whiteSpace=wrap;html=1;aspect=fixed;labelBackgroundColor=#FFB366;fillColor=#ffe6cc;strokeColor=#d79b00;" vertex="1" parent="1">
          <mxGeometry x="950" y="150" width="30" height="30" as="geometry" />
        </mxCell>
        <mxCell id="-bEd97YxeEwS5Az2jaos-158" value="SF8" style="ellipse;whiteSpace=wrap;html=1;aspect=fixed;labelBackgroundColor=#FFB366;fillColor=#ffe6cc;strokeColor=#d79b00;" vertex="1" parent="1">
          <mxGeometry x="980" y="150" width="30" height="30" as="geometry" />
        </mxCell>
        <mxCell id="-bEd97YxeEwS5Az2jaos-159" value="SF9" style="ellipse;whiteSpace=wrap;html=1;aspect=fixed;labelBackgroundColor=#FFB366;fillColor=#ffe6cc;strokeColor=#d79b00;" vertex="1" parent="1">
          <mxGeometry x="1010" y="150" width="30" height="30" as="geometry" />
        </mxCell>
        <mxCell id="-bEd97YxeEwS5Az2jaos-160" value="869.1 МГц" style="text;html=1;strokeColor=none;fillColor=none;align=center;verticalAlign=middle;whiteSpace=wrap;rounded=0;fontSize=14;fontStyle=1" vertex="1" parent="1">
          <mxGeometry x="1010" y="130" width="80" height="20" as="geometry" />
        </mxCell>
        <mxCell id="-bEd97YxeEwS5Az2jaos-161" value="SF10" style="ellipse;whiteSpace=wrap;html=1;aspect=fixed;labelBackgroundColor=#FFB366;fillColor=#ffe6cc;strokeColor=#d79b00;" vertex="1" parent="1">
          <mxGeometry x="1040" y="150" width="30" height="30" as="geometry" />
        </mxCell>
        <mxCell id="-bEd97YxeEwS5Az2jaos-162" value="SF11" style="ellipse;whiteSpace=wrap;html=1;aspect=fixed;labelBackgroundColor=#FFB366;fillColor=#ffe6cc;strokeColor=#d79b00;" vertex="1" parent="1">
          <mxGeometry x="1070" y="150" width="30" height="30" as="geometry" />
        </mxCell>
        <mxCell id="-bEd97YxeEwS5Az2jaos-163" value="SF12" style="ellipse;whiteSpace=wrap;html=1;aspect=fixed;labelBackgroundColor=#FFB366;fillColor=#ffe6cc;strokeColor=#d79b00;" vertex="1" parent="1">
          <mxGeometry x="1100" y="150" width="30" height="30" as="geometry" />
        </mxCell>
        <mxCell id="-bEd97YxeEwS5Az2jaos-164" value="" style="rounded=1;whiteSpace=wrap;html=1;fillColor=#dae8fc;strokeColor=#6c8ebf;" vertex="1" parent="1">
          <mxGeometry x="950" y="70" width="180" height="50" as="geometry" />
        </mxCell>
        <mxCell id="-bEd97YxeEwS5Az2jaos-165" value="SF7" style="ellipse;whiteSpace=wrap;html=1;aspect=fixed;labelBackgroundColor=#FFB366;fillColor=#ffe6cc;strokeColor=#d79b00;" vertex="1" parent="1">
          <mxGeometry x="950" y="90" width="30" height="30" as="geometry" />
        </mxCell>
        <mxCell id="-bEd97YxeEwS5Az2jaos-166" value="SF8" style="ellipse;whiteSpace=wrap;html=1;aspect=fixed;labelBackgroundColor=#FFB366;fillColor=#ffe6cc;strokeColor=#d79b00;" vertex="1" parent="1">
          <mxGeometry x="980" y="90" width="30" height="30" as="geometry" />
        </mxCell>
        <mxCell id="-bEd97YxeEwS5Az2jaos-167" value="SF9" style="ellipse;whiteSpace=wrap;html=1;aspect=fixed;labelBackgroundColor=#FFB366;fillColor=#ffe6cc;strokeColor=#d79b00;" vertex="1" parent="1">
          <mxGeometry x="1010" y="90" width="30" height="30" as="geometry" />
        </mxCell>
        <mxCell id="-bEd97YxeEwS5Az2jaos-168" value="867.4 МГц" style="text;html=1;strokeColor=none;fillColor=none;align=center;verticalAlign=middle;whiteSpace=wrap;rounded=0;fontSize=14;fontStyle=1" vertex="1" parent="1">
          <mxGeometry x="1010" y="70" width="80" height="20" as="geometry" />
        </mxCell>
        <mxCell id="-bEd97YxeEwS5Az2jaos-169" value="SF10" style="ellipse;whiteSpace=wrap;html=1;aspect=fixed;labelBackgroundColor=#FFB366;fillColor=#ffe6cc;strokeColor=#d79b00;" vertex="1" parent="1">
          <mxGeometry x="1040" y="90" width="30" height="30" as="geometry" />
        </mxCell>
        <mxCell id="-bEd97YxeEwS5Az2jaos-170" value="SF11" style="ellipse;whiteSpace=wrap;html=1;aspect=fixed;labelBackgroundColor=#FFB366;fillColor=#ffe6cc;strokeColor=#d79b00;" vertex="1" parent="1">
          <mxGeometry x="1070" y="90" width="30" height="30" as="geometry" />
        </mxCell>
        <mxCell id="-bEd97YxeEwS5Az2jaos-171" value="SF12" style="ellipse;whiteSpace=wrap;html=1;aspect=fixed;labelBackgroundColor=#FFB366;fillColor=#ffe6cc;strokeColor=#d79b00;" vertex="1" parent="1">
          <mxGeometry x="1100" y="90" width="30" height="30" as="geometry" />
        </mxCell>
        <mxCell id="-bEd97YxeEwS5Az2jaos-172" value="" style="rounded=1;whiteSpace=wrap;html=1;fillColor=#dae8fc;strokeColor=#6c8ebf;" vertex="1" parent="1">
          <mxGeometry x="950" y="130" width="180" height="50" as="geometry" />
        </mxCell>
        <mxCell id="-bEd97YxeEwS5Az2jaos-173" value="SF7" style="ellipse;whiteSpace=wrap;html=1;aspect=fixed;labelBackgroundColor=#FFB366;fillColor=#ffe6cc;strokeColor=#d79b00;" vertex="1" parent="1">
          <mxGeometry x="950" y="150" width="30" height="30" as="geometry" />
        </mxCell>
        <mxCell id="-bEd97YxeEwS5Az2jaos-174" value="SF8" style="ellipse;whiteSpace=wrap;html=1;aspect=fixed;labelBackgroundColor=#FFB366;fillColor=#ffe6cc;strokeColor=#d79b00;" vertex="1" parent="1">
          <mxGeometry x="980" y="150" width="30" height="30" as="geometry" />
        </mxCell>
        <mxCell id="-bEd97YxeEwS5Az2jaos-175" value="SF9" style="ellipse;whiteSpace=wrap;html=1;aspect=fixed;labelBackgroundColor=#FFB366;fillColor=#ffe6cc;strokeColor=#d79b00;" vertex="1" parent="1">
          <mxGeometry x="1010" y="150" width="30" height="30" as="geometry" />
        </mxCell>
        <mxCell id="-bEd97YxeEwS5Az2jaos-176" value="867.6 МГц" style="text;html=1;strokeColor=none;fillColor=none;align=center;verticalAlign=middle;whiteSpace=wrap;rounded=0;fontSize=14;fontStyle=1" vertex="1" parent="1">
          <mxGeometry x="1010" y="130" width="80" height="20" as="geometry" />
        </mxCell>
        <mxCell id="-bEd97YxeEwS5Az2jaos-177" value="SF10" style="ellipse;whiteSpace=wrap;html=1;aspect=fixed;labelBackgroundColor=#FFB366;fillColor=#ffe6cc;strokeColor=#d79b00;" vertex="1" parent="1">
          <mxGeometry x="1040" y="150" width="30" height="30" as="geometry" />
        </mxCell>
        <mxCell id="-bEd97YxeEwS5Az2jaos-178" value="SF11" style="ellipse;whiteSpace=wrap;html=1;aspect=fixed;labelBackgroundColor=#FFB366;fillColor=#ffe6cc;strokeColor=#d79b00;" vertex="1" parent="1">
          <mxGeometry x="1070" y="150" width="30" height="30" as="geometry" />
        </mxCell>
        <mxCell id="-bEd97YxeEwS5Az2jaos-179" value="SF12" style="ellipse;whiteSpace=wrap;html=1;aspect=fixed;labelBackgroundColor=#FFB366;fillColor=#ffe6cc;strokeColor=#d79b00;" vertex="1" parent="1">
          <mxGeometry x="1100" y="150" width="30" height="30" as="geometry" />
        </mxCell>
        <mxCell id="-bEd97YxeEwS5Az2jaos-180" value="" style="rounded=1;whiteSpace=wrap;html=1;fillColor=#dae8fc;strokeColor=#6c8ebf;" vertex="1" parent="1">
          <mxGeometry x="950" y="190" width="180" height="50" as="geometry" />
        </mxCell>
        <mxCell id="-bEd97YxeEwS5Az2jaos-181" value="SF7" style="ellipse;whiteSpace=wrap;html=1;aspect=fixed;labelBackgroundColor=#FFB366;fillColor=#ffe6cc;strokeColor=#d79b00;" vertex="1" parent="1">
          <mxGeometry x="950" y="210" width="30" height="30" as="geometry" />
        </mxCell>
        <mxCell id="-bEd97YxeEwS5Az2jaos-182" value="SF8" style="ellipse;whiteSpace=wrap;html=1;aspect=fixed;labelBackgroundColor=#FFB366;fillColor=#ffe6cc;strokeColor=#d79b00;" vertex="1" parent="1">
          <mxGeometry x="980" y="210" width="30" height="30" as="geometry" />
        </mxCell>
        <mxCell id="-bEd97YxeEwS5Az2jaos-183" value="SF9" style="ellipse;whiteSpace=wrap;html=1;aspect=fixed;labelBackgroundColor=#FFB366;fillColor=#ffe6cc;strokeColor=#d79b00;" vertex="1" parent="1">
          <mxGeometry x="1010" y="210" width="30" height="30" as="geometry" />
        </mxCell>
        <mxCell id="-bEd97YxeEwS5Az2jaos-184" value="869.1 МГц" style="text;html=1;strokeColor=none;fillColor=none;align=center;verticalAlign=middle;whiteSpace=wrap;rounded=0;fontSize=14;fontStyle=1" vertex="1" parent="1">
          <mxGeometry x="1010" y="190" width="80" height="20" as="geometry" />
        </mxCell>
        <mxCell id="-bEd97YxeEwS5Az2jaos-185" value="SF10" style="ellipse;whiteSpace=wrap;html=1;aspect=fixed;labelBackgroundColor=#FFB366;fillColor=#ffe6cc;strokeColor=#d79b00;" vertex="1" parent="1">
          <mxGeometry x="1040" y="210" width="30" height="30" as="geometry" />
        </mxCell>
        <mxCell id="-bEd97YxeEwS5Az2jaos-186" value="SF11" style="ellipse;whiteSpace=wrap;html=1;aspect=fixed;labelBackgroundColor=#FFB366;fillColor=#ffe6cc;strokeColor=#d79b00;" vertex="1" parent="1">
          <mxGeometry x="1070" y="210" width="30" height="30" as="geometry" />
        </mxCell>
        <mxCell id="-bEd97YxeEwS5Az2jaos-187" value="SF12" style="ellipse;whiteSpace=wrap;html=1;aspect=fixed;labelBackgroundColor=#FFB366;fillColor=#ffe6cc;strokeColor=#d79b00;" vertex="1" parent="1">
          <mxGeometry x="1100" y="210" width="30" height="30" as="geometry" />
        </mxCell>
        <mxCell id="-bEd97YxeEwS5Az2jaos-188" value="" style="rounded=1;whiteSpace=wrap;html=1;fillColor=#dae8fc;strokeColor=#6c8ebf;" vertex="1" parent="1">
          <mxGeometry x="950" y="190" width="180" height="50" as="geometry" />
        </mxCell>
        <mxCell id="-bEd97YxeEwS5Az2jaos-189" value="SF7" style="ellipse;whiteSpace=wrap;html=1;aspect=fixed;labelBackgroundColor=#FFB366;fillColor=#ffe6cc;strokeColor=#d79b00;" vertex="1" parent="1">
          <mxGeometry x="950" y="210" width="30" height="30" as="geometry" />
        </mxCell>
        <mxCell id="-bEd97YxeEwS5Az2jaos-190" value="SF8" style="ellipse;whiteSpace=wrap;html=1;aspect=fixed;labelBackgroundColor=#FFB366;fillColor=#ffe6cc;strokeColor=#d79b00;" vertex="1" parent="1">
          <mxGeometry x="980" y="210" width="30" height="30" as="geometry" />
        </mxCell>
        <mxCell id="-bEd97YxeEwS5Az2jaos-191" value="SF9" style="ellipse;whiteSpace=wrap;html=1;aspect=fixed;labelBackgroundColor=#FFB366;fillColor=#ffe6cc;strokeColor=#d79b00;" vertex="1" parent="1">
          <mxGeometry x="1010" y="210" width="30" height="30" as="geometry" />
        </mxCell>
        <mxCell id="-bEd97YxeEwS5Az2jaos-192" value="869.1 МГц" style="text;html=1;strokeColor=none;fillColor=none;align=center;verticalAlign=middle;whiteSpace=wrap;rounded=0;fontSize=14;fontStyle=1" vertex="1" parent="1">
          <mxGeometry x="1010" y="190" width="80" height="20" as="geometry" />
        </mxCell>
        <mxCell id="-bEd97YxeEwS5Az2jaos-193" value="SF10" style="ellipse;whiteSpace=wrap;html=1;aspect=fixed;labelBackgroundColor=#FFB366;fillColor=#ffe6cc;strokeColor=#d79b00;" vertex="1" parent="1">
          <mxGeometry x="1040" y="210" width="30" height="30" as="geometry" />
        </mxCell>
        <mxCell id="-bEd97YxeEwS5Az2jaos-194" value="SF11" style="ellipse;whiteSpace=wrap;html=1;aspect=fixed;labelBackgroundColor=#FFB366;fillColor=#ffe6cc;strokeColor=#d79b00;" vertex="1" parent="1">
          <mxGeometry x="1070" y="210" width="30" height="30" as="geometry" />
        </mxCell>
        <mxCell id="-bEd97YxeEwS5Az2jaos-195" value="SF12" style="ellipse;whiteSpace=wrap;html=1;aspect=fixed;labelBackgroundColor=#FFB366;fillColor=#ffe6cc;strokeColor=#d79b00;" vertex="1" parent="1">
          <mxGeometry x="1100" y="210" width="30" height="30" as="geometry" />
        </mxCell>
        <mxCell id="-bEd97YxeEwS5Az2jaos-196" value="" style="rounded=1;whiteSpace=wrap;html=1;fillColor=#dae8fc;strokeColor=#6c8ebf;" vertex="1" parent="1">
          <mxGeometry x="950" y="190" width="180" height="50" as="geometry" />
        </mxCell>
        <mxCell id="-bEd97YxeEwS5Az2jaos-197" value="SF7" style="ellipse;whiteSpace=wrap;html=1;aspect=fixed;labelBackgroundColor=#FFB366;fillColor=#ffe6cc;strokeColor=#d79b00;" vertex="1" parent="1">
          <mxGeometry x="950" y="210" width="30" height="30" as="geometry" />
        </mxCell>
        <mxCell id="-bEd97YxeEwS5Az2jaos-198" value="SF8" style="ellipse;whiteSpace=wrap;html=1;aspect=fixed;labelBackgroundColor=#FFB366;fillColor=#ffe6cc;strokeColor=#d79b00;" vertex="1" parent="1">
          <mxGeometry x="980" y="210" width="30" height="30" as="geometry" />
        </mxCell>
        <mxCell id="-bEd97YxeEwS5Az2jaos-199" value="SF9" style="ellipse;whiteSpace=wrap;html=1;aspect=fixed;labelBackgroundColor=#FFB366;fillColor=#ffe6cc;strokeColor=#d79b00;" vertex="1" parent="1">
          <mxGeometry x="1010" y="210" width="30" height="30" as="geometry" />
        </mxCell>
        <mxCell id="-bEd97YxeEwS5Az2jaos-200" value="869.1 МГц" style="text;html=1;strokeColor=none;fillColor=none;align=center;verticalAlign=middle;whiteSpace=wrap;rounded=0;fontSize=14;fontStyle=1" vertex="1" parent="1">
          <mxGeometry x="1010" y="190" width="80" height="20" as="geometry" />
        </mxCell>
        <mxCell id="-bEd97YxeEwS5Az2jaos-201" value="SF10" style="ellipse;whiteSpace=wrap;html=1;aspect=fixed;labelBackgroundColor=#FFB366;fillColor=#ffe6cc;strokeColor=#d79b00;" vertex="1" parent="1">
          <mxGeometry x="1040" y="210" width="30" height="30" as="geometry" />
        </mxCell>
        <mxCell id="-bEd97YxeEwS5Az2jaos-202" value="SF11" style="ellipse;whiteSpace=wrap;html=1;aspect=fixed;labelBackgroundColor=#FFB366;fillColor=#ffe6cc;strokeColor=#d79b00;" vertex="1" parent="1">
          <mxGeometry x="1070" y="210" width="30" height="30" as="geometry" />
        </mxCell>
        <mxCell id="-bEd97YxeEwS5Az2jaos-203" value="SF12" style="ellipse;whiteSpace=wrap;html=1;aspect=fixed;labelBackgroundColor=#FFB366;fillColor=#ffe6cc;strokeColor=#d79b00;" vertex="1" parent="1">
          <mxGeometry x="1100" y="210" width="30" height="30" as="geometry" />
        </mxCell>
        <mxCell id="-bEd97YxeEwS5Az2jaos-204" value="" style="rounded=1;whiteSpace=wrap;html=1;fillColor=#dae8fc;strokeColor=#6c8ebf;" vertex="1" parent="1">
          <mxGeometry x="950" y="190" width="180" height="50" as="geometry" />
        </mxCell>
        <mxCell id="-bEd97YxeEwS5Az2jaos-205" value="SF7" style="ellipse;whiteSpace=wrap;html=1;aspect=fixed;labelBackgroundColor=#FFB366;fillColor=#ffe6cc;strokeColor=#d79b00;" vertex="1" parent="1">
          <mxGeometry x="950" y="210" width="30" height="30" as="geometry" />
        </mxCell>
        <mxCell id="-bEd97YxeEwS5Az2jaos-206" value="SF8" style="ellipse;whiteSpace=wrap;html=1;aspect=fixed;labelBackgroundColor=#FFB366;fillColor=#ffe6cc;strokeColor=#d79b00;" vertex="1" parent="1">
          <mxGeometry x="980" y="210" width="30" height="30" as="geometry" />
        </mxCell>
        <mxCell id="-bEd97YxeEwS5Az2jaos-207" value="SF9" style="ellipse;whiteSpace=wrap;html=1;aspect=fixed;labelBackgroundColor=#FFB366;fillColor=#ffe6cc;strokeColor=#d79b00;" vertex="1" parent="1">
          <mxGeometry x="1010" y="210" width="30" height="30" as="geometry" />
        </mxCell>
        <mxCell id="-bEd97YxeEwS5Az2jaos-208" value="867.8 МГц" style="text;html=1;strokeColor=none;fillColor=none;align=center;verticalAlign=middle;whiteSpace=wrap;rounded=0;fontSize=14;fontStyle=1" vertex="1" parent="1">
          <mxGeometry x="1010" y="190" width="80" height="20" as="geometry" />
        </mxCell>
        <mxCell id="-bEd97YxeEwS5Az2jaos-209" value="SF10" style="ellipse;whiteSpace=wrap;html=1;aspect=fixed;labelBackgroundColor=#FFB366;fillColor=#ffe6cc;strokeColor=#d79b00;" vertex="1" parent="1">
          <mxGeometry x="1040" y="210" width="30" height="30" as="geometry" />
        </mxCell>
        <mxCell id="-bEd97YxeEwS5Az2jaos-210" value="SF11" style="ellipse;whiteSpace=wrap;html=1;aspect=fixed;labelBackgroundColor=#FFB366;fillColor=#ffe6cc;strokeColor=#d79b00;" vertex="1" parent="1">
          <mxGeometry x="1070" y="210" width="30" height="30" as="geometry" />
        </mxCell>
        <mxCell id="-bEd97YxeEwS5Az2jaos-211" value="SF12" style="ellipse;whiteSpace=wrap;html=1;aspect=fixed;labelBackgroundColor=#FFB366;fillColor=#ffe6cc;strokeColor=#d79b00;" vertex="1" parent="1">
          <mxGeometry x="1100" y="210" width="30" height="30" as="geometry" />
        </mxCell>
        <mxCell id="-bEd97YxeEwS5Az2jaos-212" value="" style="rounded=0;whiteSpace=wrap;html=1;labelBackgroundColor=none;fontSize=14;fillColor=none;" vertex="1" parent="1">
          <mxGeometry x="30" y="50" width="220" height="220" as="geometry" />
        </mxCell>
        <mxCell id="-bEd97YxeEwS5Az2jaos-213" value="" style="rounded=0;whiteSpace=wrap;html=1;labelBackgroundColor=none;fontSize=14;fillColor=none;" vertex="1" parent="1">
          <mxGeometry x="530" y="50" width="620" height="220" as="geometry" />
        </mxCell>
        <mxCell id="-bEd97YxeEwS5Az2jaos-215" value="Сеть и БС (объявляют об используемом частотном плане при активации датчиков)" style="text;html=1;strokeColor=none;fillColor=none;align=center;verticalAlign=middle;whiteSpace=wrap;rounded=0;labelBackgroundColor=none;fontSize=17;fontStyle=1" vertex="1" parent="1">
          <mxGeometry x="550" y="190" width="370" height="70" as="geometry" />
        </mxCell>
        <mxCell id="-bEd97YxeEwS5Az2jaos-216" value="&lt;div&gt;Датчик &lt;br&gt;&lt;/div&gt;&lt;div&gt;(настройки по умолчанию до активации в сети)&lt;/div&gt;" style="text;html=1;strokeColor=none;fillColor=none;align=center;verticalAlign=middle;whiteSpace=wrap;rounded=0;labelBackgroundColor=none;fontSize=16;fontStyle=1" vertex="1" parent="1">
          <mxGeometry x="30" y="190" width="220" height="80" as="geometry" />
        </mxCell>
        <mxCell id="-bEd97YxeEwS5Az2jaos-217" value="" style="shape=flexArrow;endArrow=classic;html=1;fontSize=16;" edge="1" parent="1">
          <mxGeometry width="50" height="50" relative="1" as="geometry">
            <mxPoint x="256" y="130" as="sourcePoint" />
            <mxPoint x="520" y="130" as="targetPoint" />
          </mxGeometry>
        </mxCell>
        <mxCell id="-bEd97YxeEwS5Az2jaos-218" value="Join Accept (подтверждение активации, передача настроек для работы в сети)" style="text;html=1;strokeColor=none;fillColor=none;align=center;verticalAlign=middle;whiteSpace=wrap;rounded=0;labelBackgroundColor=none;fontSize=16;" vertex="1" parent="1">
          <mxGeometry x="260" y="190" width="250" height="20" as="geometry" />
        </mxCell>
        <mxCell id="-bEd97YxeEwS5Az2jaos-219" value="" style="shape=flexArrow;endArrow=classic;html=1;fontSize=16;" edge="1" parent="1">
          <mxGeometry width="50" height="50" relative="1" as="geometry">
            <mxPoint x="520" y="238.57" as="sourcePoint" />
            <mxPoint x="260" y="238.57" as="targetPoint" />
          </mxGeometry>
        </mxCell>
        <mxCell id="-bEd97YxeEwS5Az2jaos-220" value="Join Request (запрос на активацию в сети)" style="text;html=1;strokeColor=none;fillColor=none;align=center;verticalAlign=middle;whiteSpace=wrap;rounded=0;labelBackgroundColor=none;fontSize=16;" vertex="1" parent="1">
          <mxGeometry x="280" y="95" width="200" height="20" as="geometry" />
        </mxCell>
        <mxCell id="-bEd97YxeEwS5Az2jaos-221" value="" style="endArrow=classic;html=1;fontSize=16;" edge="1" parent="1">
          <mxGeometry width="50" height="50" relative="1" as="geometry">
            <mxPoint x="130" y="280" as="sourcePoint" />
            <mxPoint x="130" y="380" as="targetPoint" />
          </mxGeometry>
        </mxCell>
        <mxCell id="-bEd97YxeEwS5Az2jaos-222" value="" style="rounded=1;whiteSpace=wrap;html=1;fillColor=#dae8fc;strokeColor=#6c8ebf;" vertex="1" parent="1">
          <mxGeometry x="40" y="410" width="180" height="50" as="geometry" />
        </mxCell>
        <mxCell id="-bEd97YxeEwS5Az2jaos-223" value="SF7" style="ellipse;whiteSpace=wrap;html=1;aspect=fixed;labelBackgroundColor=#FFB366;fillColor=#ffe6cc;strokeColor=#d79b00;" vertex="1" parent="1">
          <mxGeometry x="40" y="430" width="30" height="30" as="geometry" />
        </mxCell>
        <mxCell id="-bEd97YxeEwS5Az2jaos-224" value="SF8" style="ellipse;whiteSpace=wrap;html=1;aspect=fixed;labelBackgroundColor=#FFB366;fillColor=#ffe6cc;strokeColor=#d79b00;" vertex="1" parent="1">
          <mxGeometry x="70" y="430" width="30" height="30" as="geometry" />
        </mxCell>
        <mxCell id="-bEd97YxeEwS5Az2jaos-225" value="SF9" style="ellipse;whiteSpace=wrap;html=1;aspect=fixed;labelBackgroundColor=#FFB366;fillColor=#ffe6cc;strokeColor=#d79b00;" vertex="1" parent="1">
          <mxGeometry x="100" y="430" width="30" height="30" as="geometry" />
        </mxCell>
        <mxCell id="-bEd97YxeEwS5Az2jaos-226" value="868.9 МГц" style="text;html=1;strokeColor=none;fillColor=none;align=center;verticalAlign=middle;whiteSpace=wrap;rounded=0;fontSize=14;fontStyle=1" vertex="1" parent="1">
          <mxGeometry x="100" y="410" width="80" height="20" as="geometry" />
        </mxCell>
        <mxCell id="-bEd97YxeEwS5Az2jaos-230" value="" style="rounded=1;whiteSpace=wrap;html=1;fillColor=#dae8fc;strokeColor=#6c8ebf;" vertex="1" parent="1">
          <mxGeometry x="40" y="470" width="180" height="50" as="geometry" />
        </mxCell>
        <mxCell id="-bEd97YxeEwS5Az2jaos-231" value="SF7" style="ellipse;whiteSpace=wrap;html=1;aspect=fixed;labelBackgroundColor=#FFB366;fillColor=#ffe6cc;strokeColor=#d79b00;" vertex="1" parent="1">
          <mxGeometry x="40" y="490" width="30" height="30" as="geometry" />
        </mxCell>
        <mxCell id="-bEd97YxeEwS5Az2jaos-232" value="SF8" style="ellipse;whiteSpace=wrap;html=1;aspect=fixed;labelBackgroundColor=#FFB366;fillColor=#ffe6cc;strokeColor=#d79b00;" vertex="1" parent="1">
          <mxGeometry x="70" y="490" width="30" height="30" as="geometry" />
        </mxCell>
        <mxCell id="-bEd97YxeEwS5Az2jaos-233" value="SF9" style="ellipse;whiteSpace=wrap;html=1;aspect=fixed;labelBackgroundColor=#FFB366;fillColor=#ffe6cc;strokeColor=#d79b00;" vertex="1" parent="1">
          <mxGeometry x="100" y="490" width="30" height="30" as="geometry" />
        </mxCell>
        <mxCell id="-bEd97YxeEwS5Az2jaos-234" value="869.1 МГц" style="text;html=1;strokeColor=none;fillColor=none;align=center;verticalAlign=middle;whiteSpace=wrap;rounded=0;fontSize=14;fontStyle=1" vertex="1" parent="1">
          <mxGeometry x="100" y="470" width="80" height="20" as="geometry" />
        </mxCell>
        <mxCell id="-bEd97YxeEwS5Az2jaos-238" value="" style="rounded=0;whiteSpace=wrap;html=1;labelBackgroundColor=none;fontSize=14;fillColor=none;" vertex="1" parent="1">
          <mxGeometry x="20" y="390" width="220" height="220" as="geometry" />
        </mxCell>
        <mxCell id="-bEd97YxeEwS5Az2jaos-239" value="&lt;div&gt;Датчик в сети - текущая реализация&lt;br&gt;&lt;/div&gt;" style="text;html=1;strokeColor=none;fillColor=none;align=center;verticalAlign=middle;whiteSpace=wrap;rounded=0;labelBackgroundColor=none;fontSize=16;fontStyle=1" vertex="1" parent="1">
          <mxGeometry x="20" y="530" width="220" height="80" as="geometry" />
        </mxCell>
        <mxCell id="-bEd97YxeEwS5Az2jaos-240" value="1" style="ellipse;whiteSpace=wrap;html=1;aspect=fixed;labelBackgroundColor=none;fontSize=16;fillColor=#d5e8d4;strokeColor=#82b366;" vertex="1" parent="1">
          <mxGeometry x="500" y="85" width="30" height="30" as="geometry" />
        </mxCell>
        <mxCell id="-bEd97YxeEwS5Az2jaos-241" value="2" style="ellipse;whiteSpace=wrap;html=1;aspect=fixed;labelBackgroundColor=none;fontSize=16;fillColor=#d5e8d4;strokeColor=#82b366;" vertex="1" parent="1">
          <mxGeometry x="500" y="200" width="30" height="30" as="geometry" />
        </mxCell>
        <mxCell id="-bEd97YxeEwS5Az2jaos-242" value="3" style="ellipse;whiteSpace=wrap;html=1;aspect=fixed;labelBackgroundColor=none;fontSize=16;fillColor=#d5e8d4;strokeColor=#82b366;" vertex="1" parent="1">
          <mxGeometry x="150" y="320" width="30" height="30" as="geometry" />
        </mxCell>
        <mxCell id="-bEd97YxeEwS5Az2jaos-243" value="" style="rounded=1;whiteSpace=wrap;html=1;fillColor=#dae8fc;strokeColor=#6c8ebf;" vertex="1" parent="1">
          <mxGeometry x="320" y="410" width="180" height="50" as="geometry" />
        </mxCell>
        <mxCell id="-bEd97YxeEwS5Az2jaos-244" value="SF7" style="ellipse;whiteSpace=wrap;html=1;aspect=fixed;labelBackgroundColor=#FFB366;fillColor=#ffe6cc;strokeColor=#d79b00;" vertex="1" parent="1">
          <mxGeometry x="320" y="430" width="30" height="30" as="geometry" />
        </mxCell>
        <mxCell id="-bEd97YxeEwS5Az2jaos-245" value="SF8" style="ellipse;whiteSpace=wrap;html=1;aspect=fixed;labelBackgroundColor=#FFB366;fillColor=#ffe6cc;strokeColor=#d79b00;" vertex="1" parent="1">
          <mxGeometry x="350" y="430" width="30" height="30" as="geometry" />
        </mxCell>
        <mxCell id="-bEd97YxeEwS5Az2jaos-246" value="SF9" style="ellipse;whiteSpace=wrap;html=1;aspect=fixed;labelBackgroundColor=#FFB366;fillColor=#ffe6cc;strokeColor=#d79b00;" vertex="1" parent="1">
          <mxGeometry x="380" y="430" width="30" height="30" as="geometry" />
        </mxCell>
        <mxCell id="-bEd97YxeEwS5Az2jaos-247" value="868.9 МГц" style="text;html=1;strokeColor=none;fillColor=none;align=center;verticalAlign=middle;whiteSpace=wrap;rounded=0;fontSize=14;fontStyle=1" vertex="1" parent="1">
          <mxGeometry x="380" y="410" width="80" height="20" as="geometry" />
        </mxCell>
        <mxCell id="-bEd97YxeEwS5Az2jaos-251" value="" style="rounded=1;whiteSpace=wrap;html=1;fillColor=#dae8fc;strokeColor=#6c8ebf;" vertex="1" parent="1">
          <mxGeometry x="320" y="470" width="180" height="50" as="geometry" />
        </mxCell>
        <mxCell id="-bEd97YxeEwS5Az2jaos-252" value="SF7" style="ellipse;whiteSpace=wrap;html=1;aspect=fixed;labelBackgroundColor=#FFB366;fillColor=#ffe6cc;strokeColor=#d79b00;" vertex="1" parent="1">
          <mxGeometry x="320" y="490" width="30" height="30" as="geometry" />
        </mxCell>
        <mxCell id="-bEd97YxeEwS5Az2jaos-253" value="SF8" style="ellipse;whiteSpace=wrap;html=1;aspect=fixed;labelBackgroundColor=#FFB366;fillColor=#ffe6cc;strokeColor=#d79b00;" vertex="1" parent="1">
          <mxGeometry x="350" y="490" width="30" height="30" as="geometry" />
        </mxCell>
        <mxCell id="-bEd97YxeEwS5Az2jaos-254" value="SF9" style="ellipse;whiteSpace=wrap;html=1;aspect=fixed;labelBackgroundColor=#FFB366;fillColor=#ffe6cc;strokeColor=#d79b00;" vertex="1" parent="1">
          <mxGeometry x="380" y="490" width="30" height="30" as="geometry" />
        </mxCell>
        <mxCell id="-bEd97YxeEwS5Az2jaos-255" value="869.1 МГц" style="text;html=1;strokeColor=none;fillColor=none;align=center;verticalAlign=middle;whiteSpace=wrap;rounded=0;fontSize=14;fontStyle=1" vertex="1" parent="1">
          <mxGeometry x="380" y="470" width="80" height="20" as="geometry" />
        </mxCell>
        <mxCell id="-bEd97YxeEwS5Az2jaos-259" value="" style="rounded=1;whiteSpace=wrap;html=1;fillColor=#dae8fc;strokeColor=#6c8ebf;" vertex="1" parent="1">
          <mxGeometry x="520" y="410" width="180" height="50" as="geometry" />
        </mxCell>
        <mxCell id="-bEd97YxeEwS5Az2jaos-260" value="SF7" style="ellipse;whiteSpace=wrap;html=1;aspect=fixed;labelBackgroundColor=#FFB366;fillColor=#ffe6cc;strokeColor=#d79b00;" vertex="1" parent="1">
          <mxGeometry x="520" y="430" width="30" height="30" as="geometry" />
        </mxCell>
        <mxCell id="-bEd97YxeEwS5Az2jaos-261" value="SF8" style="ellipse;whiteSpace=wrap;html=1;aspect=fixed;labelBackgroundColor=#FFB366;fillColor=#ffe6cc;strokeColor=#d79b00;" vertex="1" parent="1">
          <mxGeometry x="550" y="430" width="30" height="30" as="geometry" />
        </mxCell>
        <mxCell id="-bEd97YxeEwS5Az2jaos-262" value="SF9" style="ellipse;whiteSpace=wrap;html=1;aspect=fixed;labelBackgroundColor=#FFB366;fillColor=#ffe6cc;strokeColor=#d79b00;" vertex="1" parent="1">
          <mxGeometry x="580" y="430" width="30" height="30" as="geometry" />
        </mxCell>
        <mxCell id="-bEd97YxeEwS5Az2jaos-263" value="868.9 МГц" style="text;html=1;strokeColor=none;fillColor=none;align=center;verticalAlign=middle;whiteSpace=wrap;rounded=0;fontSize=14;fontStyle=1" vertex="1" parent="1">
          <mxGeometry x="580" y="410" width="80" height="20" as="geometry" />
        </mxCell>
        <mxCell id="-bEd97YxeEwS5Az2jaos-264" value="SF10" style="ellipse;whiteSpace=wrap;html=1;aspect=fixed;labelBackgroundColor=#FFB366;fillColor=#ffe6cc;strokeColor=#d79b00;" vertex="1" parent="1">
          <mxGeometry x="610" y="430" width="30" height="30" as="geometry" />
        </mxCell>
        <mxCell id="-bEd97YxeEwS5Az2jaos-265" value="SF11" style="ellipse;whiteSpace=wrap;html=1;aspect=fixed;labelBackgroundColor=#FFB366;fillColor=#ffe6cc;strokeColor=#d79b00;" vertex="1" parent="1">
          <mxGeometry x="640" y="430" width="30" height="30" as="geometry" />
        </mxCell>
        <mxCell id="-bEd97YxeEwS5Az2jaos-266" value="SF12" style="ellipse;whiteSpace=wrap;html=1;aspect=fixed;labelBackgroundColor=#FFB366;fillColor=#ffe6cc;strokeColor=#d79b00;" vertex="1" parent="1">
          <mxGeometry x="670" y="430" width="30" height="30" as="geometry" />
        </mxCell>
        <mxCell id="-bEd97YxeEwS5Az2jaos-267" value="" style="rounded=1;whiteSpace=wrap;html=1;fillColor=#dae8fc;strokeColor=#6c8ebf;" vertex="1" parent="1">
          <mxGeometry x="520" y="470" width="180" height="50" as="geometry" />
        </mxCell>
        <mxCell id="-bEd97YxeEwS5Az2jaos-268" value="SF7" style="ellipse;whiteSpace=wrap;html=1;aspect=fixed;labelBackgroundColor=#FFB366;fillColor=#ffe6cc;strokeColor=#d79b00;" vertex="1" parent="1">
          <mxGeometry x="520" y="490" width="30" height="30" as="geometry" />
        </mxCell>
        <mxCell id="-bEd97YxeEwS5Az2jaos-269" value="SF8" style="ellipse;whiteSpace=wrap;html=1;aspect=fixed;labelBackgroundColor=#FFB366;fillColor=#ffe6cc;strokeColor=#d79b00;" vertex="1" parent="1">
          <mxGeometry x="550" y="490" width="30" height="30" as="geometry" />
        </mxCell>
        <mxCell id="-bEd97YxeEwS5Az2jaos-270" value="SF9" style="ellipse;whiteSpace=wrap;html=1;aspect=fixed;labelBackgroundColor=#FFB366;fillColor=#ffe6cc;strokeColor=#d79b00;" vertex="1" parent="1">
          <mxGeometry x="580" y="490" width="30" height="30" as="geometry" />
        </mxCell>
        <mxCell id="-bEd97YxeEwS5Az2jaos-271" value="869.1 МГц" style="text;html=1;strokeColor=none;fillColor=none;align=center;verticalAlign=middle;whiteSpace=wrap;rounded=0;fontSize=14;fontStyle=1" vertex="1" parent="1">
          <mxGeometry x="580" y="470" width="80" height="20" as="geometry" />
        </mxCell>
        <mxCell id="-bEd97YxeEwS5Az2jaos-272" value="SF10" style="ellipse;whiteSpace=wrap;html=1;aspect=fixed;labelBackgroundColor=#FFB366;fillColor=#ffe6cc;strokeColor=#d79b00;" vertex="1" parent="1">
          <mxGeometry x="610" y="490" width="30" height="30" as="geometry" />
        </mxCell>
        <mxCell id="-bEd97YxeEwS5Az2jaos-273" value="SF11" style="ellipse;whiteSpace=wrap;html=1;aspect=fixed;labelBackgroundColor=#FFB366;fillColor=#ffe6cc;strokeColor=#d79b00;" vertex="1" parent="1">
          <mxGeometry x="640" y="490" width="30" height="30" as="geometry" />
        </mxCell>
        <mxCell id="-bEd97YxeEwS5Az2jaos-274" value="SF12" style="ellipse;whiteSpace=wrap;html=1;aspect=fixed;labelBackgroundColor=#FFB366;fillColor=#ffe6cc;strokeColor=#d79b00;" vertex="1" parent="1">
          <mxGeometry x="670" y="490" width="30" height="30" as="geometry" />
        </mxCell>
        <mxCell id="-bEd97YxeEwS5Az2jaos-275" value="" style="rounded=1;whiteSpace=wrap;html=1;fillColor=#dae8fc;strokeColor=#6c8ebf;" vertex="1" parent="1">
          <mxGeometry x="520" y="410" width="180" height="50" as="geometry" />
        </mxCell>
        <mxCell id="-bEd97YxeEwS5Az2jaos-276" value="SF7" style="ellipse;whiteSpace=wrap;html=1;aspect=fixed;labelBackgroundColor=#FFB366;fillColor=#ffe6cc;strokeColor=#d79b00;" vertex="1" parent="1">
          <mxGeometry x="520" y="430" width="30" height="30" as="geometry" />
        </mxCell>
        <mxCell id="-bEd97YxeEwS5Az2jaos-277" value="SF8" style="ellipse;whiteSpace=wrap;html=1;aspect=fixed;labelBackgroundColor=#FFB366;fillColor=#ffe6cc;strokeColor=#d79b00;" vertex="1" parent="1">
          <mxGeometry x="550" y="430" width="30" height="30" as="geometry" />
        </mxCell>
        <mxCell id="-bEd97YxeEwS5Az2jaos-278" value="SF9" style="ellipse;whiteSpace=wrap;html=1;aspect=fixed;labelBackgroundColor=#FFB366;fillColor=#ffe6cc;strokeColor=#d79b00;" vertex="1" parent="1">
          <mxGeometry x="580" y="430" width="30" height="30" as="geometry" />
        </mxCell>
        <mxCell id="-bEd97YxeEwS5Az2jaos-279" value="868.9 МГц" style="text;html=1;strokeColor=none;fillColor=none;align=center;verticalAlign=middle;whiteSpace=wrap;rounded=0;fontSize=14;fontStyle=1" vertex="1" parent="1">
          <mxGeometry x="580" y="410" width="80" height="20" as="geometry" />
        </mxCell>
        <mxCell id="-bEd97YxeEwS5Az2jaos-280" value="SF10" style="ellipse;whiteSpace=wrap;html=1;aspect=fixed;labelBackgroundColor=#FFB366;fillColor=#ffe6cc;strokeColor=#d79b00;" vertex="1" parent="1">
          <mxGeometry x="610" y="430" width="30" height="30" as="geometry" />
        </mxCell>
        <mxCell id="-bEd97YxeEwS5Az2jaos-281" value="SF11" style="ellipse;whiteSpace=wrap;html=1;aspect=fixed;labelBackgroundColor=#FFB366;fillColor=#ffe6cc;strokeColor=#d79b00;" vertex="1" parent="1">
          <mxGeometry x="640" y="430" width="30" height="30" as="geometry" />
        </mxCell>
        <mxCell id="-bEd97YxeEwS5Az2jaos-282" value="SF12" style="ellipse;whiteSpace=wrap;html=1;aspect=fixed;labelBackgroundColor=#FFB366;fillColor=#ffe6cc;strokeColor=#d79b00;" vertex="1" parent="1">
          <mxGeometry x="670" y="430" width="30" height="30" as="geometry" />
        </mxCell>
        <mxCell id="-bEd97YxeEwS5Az2jaos-283" value="" style="rounded=1;whiteSpace=wrap;html=1;fillColor=#dae8fc;strokeColor=#6c8ebf;" vertex="1" parent="1">
          <mxGeometry x="520" y="470" width="180" height="50" as="geometry" />
        </mxCell>
        <mxCell id="-bEd97YxeEwS5Az2jaos-284" value="SF7" style="ellipse;whiteSpace=wrap;html=1;aspect=fixed;labelBackgroundColor=#FFB366;fillColor=#ffe6cc;strokeColor=#d79b00;" vertex="1" parent="1">
          <mxGeometry x="520" y="490" width="30" height="30" as="geometry" />
        </mxCell>
        <mxCell id="-bEd97YxeEwS5Az2jaos-285" value="SF8" style="ellipse;whiteSpace=wrap;html=1;aspect=fixed;labelBackgroundColor=#FFB366;fillColor=#ffe6cc;strokeColor=#d79b00;" vertex="1" parent="1">
          <mxGeometry x="550" y="490" width="30" height="30" as="geometry" />
        </mxCell>
        <mxCell id="-bEd97YxeEwS5Az2jaos-286" value="SF9" style="ellipse;whiteSpace=wrap;html=1;aspect=fixed;labelBackgroundColor=#FFB366;fillColor=#ffe6cc;strokeColor=#d79b00;" vertex="1" parent="1">
          <mxGeometry x="580" y="490" width="30" height="30" as="geometry" />
        </mxCell>
        <mxCell id="-bEd97YxeEwS5Az2jaos-287" value="869.1 МГц" style="text;html=1;strokeColor=none;fillColor=none;align=center;verticalAlign=middle;whiteSpace=wrap;rounded=0;fontSize=14;fontStyle=1" vertex="1" parent="1">
          <mxGeometry x="580" y="470" width="80" height="20" as="geometry" />
        </mxCell>
        <mxCell id="-bEd97YxeEwS5Az2jaos-288" value="SF10" style="ellipse;whiteSpace=wrap;html=1;aspect=fixed;labelBackgroundColor=#FFB366;fillColor=#ffe6cc;strokeColor=#d79b00;" vertex="1" parent="1">
          <mxGeometry x="610" y="490" width="30" height="30" as="geometry" />
        </mxCell>
        <mxCell id="-bEd97YxeEwS5Az2jaos-289" value="SF11" style="ellipse;whiteSpace=wrap;html=1;aspect=fixed;labelBackgroundColor=#FFB366;fillColor=#ffe6cc;strokeColor=#d79b00;" vertex="1" parent="1">
          <mxGeometry x="640" y="490" width="30" height="30" as="geometry" />
        </mxCell>
        <mxCell id="-bEd97YxeEwS5Az2jaos-290" value="SF12" style="ellipse;whiteSpace=wrap;html=1;aspect=fixed;labelBackgroundColor=#FFB366;fillColor=#ffe6cc;strokeColor=#d79b00;" vertex="1" parent="1">
          <mxGeometry x="670" y="490" width="30" height="30" as="geometry" />
        </mxCell>
        <mxCell id="-bEd97YxeEwS5Az2jaos-291" value="" style="rounded=1;whiteSpace=wrap;html=1;fillColor=#dae8fc;strokeColor=#6c8ebf;" vertex="1" parent="1">
          <mxGeometry x="520" y="410" width="180" height="50" as="geometry" />
        </mxCell>
        <mxCell id="-bEd97YxeEwS5Az2jaos-292" value="SF7" style="ellipse;whiteSpace=wrap;html=1;aspect=fixed;labelBackgroundColor=#FFB366;fillColor=#ffe6cc;strokeColor=#d79b00;" vertex="1" parent="1">
          <mxGeometry x="520" y="430" width="30" height="30" as="geometry" />
        </mxCell>
        <mxCell id="-bEd97YxeEwS5Az2jaos-293" value="SF8" style="ellipse;whiteSpace=wrap;html=1;aspect=fixed;labelBackgroundColor=#FFB366;fillColor=#ffe6cc;strokeColor=#d79b00;" vertex="1" parent="1">
          <mxGeometry x="550" y="430" width="30" height="30" as="geometry" />
        </mxCell>
        <mxCell id="-bEd97YxeEwS5Az2jaos-294" value="SF9" style="ellipse;whiteSpace=wrap;html=1;aspect=fixed;labelBackgroundColor=#FFB366;fillColor=#ffe6cc;strokeColor=#d79b00;" vertex="1" parent="1">
          <mxGeometry x="580" y="430" width="30" height="30" as="geometry" />
        </mxCell>
        <mxCell id="-bEd97YxeEwS5Az2jaos-295" value="868.9 МГц" style="text;html=1;strokeColor=none;fillColor=none;align=center;verticalAlign=middle;whiteSpace=wrap;rounded=0;fontSize=14;fontStyle=1" vertex="1" parent="1">
          <mxGeometry x="580" y="410" width="80" height="20" as="geometry" />
        </mxCell>
        <mxCell id="-bEd97YxeEwS5Az2jaos-296" value="SF10" style="ellipse;whiteSpace=wrap;html=1;aspect=fixed;labelBackgroundColor=#FFB366;fillColor=#ffe6cc;strokeColor=#d79b00;" vertex="1" parent="1">
          <mxGeometry x="610" y="430" width="30" height="30" as="geometry" />
        </mxCell>
        <mxCell id="-bEd97YxeEwS5Az2jaos-297" value="SF11" style="ellipse;whiteSpace=wrap;html=1;aspect=fixed;labelBackgroundColor=#FFB366;fillColor=#ffe6cc;strokeColor=#d79b00;" vertex="1" parent="1">
          <mxGeometry x="640" y="430" width="30" height="30" as="geometry" />
        </mxCell>
        <mxCell id="-bEd97YxeEwS5Az2jaos-298" value="SF12" style="ellipse;whiteSpace=wrap;html=1;aspect=fixed;labelBackgroundColor=#FFB366;fillColor=#ffe6cc;strokeColor=#d79b00;" vertex="1" parent="1">
          <mxGeometry x="670" y="430" width="30" height="30" as="geometry" />
        </mxCell>
        <mxCell id="-bEd97YxeEwS5Az2jaos-299" value="" style="rounded=1;whiteSpace=wrap;html=1;fillColor=#dae8fc;strokeColor=#6c8ebf;" vertex="1" parent="1">
          <mxGeometry x="520" y="470" width="180" height="50" as="geometry" />
        </mxCell>
        <mxCell id="-bEd97YxeEwS5Az2jaos-300" value="SF7" style="ellipse;whiteSpace=wrap;html=1;aspect=fixed;labelBackgroundColor=#FFB366;fillColor=#ffe6cc;strokeColor=#d79b00;" vertex="1" parent="1">
          <mxGeometry x="520" y="490" width="30" height="30" as="geometry" />
        </mxCell>
        <mxCell id="-bEd97YxeEwS5Az2jaos-301" value="SF8" style="ellipse;whiteSpace=wrap;html=1;aspect=fixed;labelBackgroundColor=#FFB366;fillColor=#ffe6cc;strokeColor=#d79b00;" vertex="1" parent="1">
          <mxGeometry x="550" y="490" width="30" height="30" as="geometry" />
        </mxCell>
        <mxCell id="-bEd97YxeEwS5Az2jaos-302" value="SF9" style="ellipse;whiteSpace=wrap;html=1;aspect=fixed;labelBackgroundColor=#FFB366;fillColor=#ffe6cc;strokeColor=#d79b00;" vertex="1" parent="1">
          <mxGeometry x="580" y="490" width="30" height="30" as="geometry" />
        </mxCell>
        <mxCell id="-bEd97YxeEwS5Az2jaos-303" value="869.1 МГц" style="text;html=1;strokeColor=none;fillColor=none;align=center;verticalAlign=middle;whiteSpace=wrap;rounded=0;fontSize=14;fontStyle=1" vertex="1" parent="1">
          <mxGeometry x="580" y="470" width="80" height="20" as="geometry" />
        </mxCell>
        <mxCell id="-bEd97YxeEwS5Az2jaos-304" value="SF10" style="ellipse;whiteSpace=wrap;html=1;aspect=fixed;labelBackgroundColor=#FFB366;fillColor=#ffe6cc;strokeColor=#d79b00;" vertex="1" parent="1">
          <mxGeometry x="610" y="490" width="30" height="30" as="geometry" />
        </mxCell>
        <mxCell id="-bEd97YxeEwS5Az2jaos-305" value="SF11" style="ellipse;whiteSpace=wrap;html=1;aspect=fixed;labelBackgroundColor=#FFB366;fillColor=#ffe6cc;strokeColor=#d79b00;" vertex="1" parent="1">
          <mxGeometry x="640" y="490" width="30" height="30" as="geometry" />
        </mxCell>
        <mxCell id="-bEd97YxeEwS5Az2jaos-306" value="SF12" style="ellipse;whiteSpace=wrap;html=1;aspect=fixed;labelBackgroundColor=#FFB366;fillColor=#ffe6cc;strokeColor=#d79b00;" vertex="1" parent="1">
          <mxGeometry x="670" y="490" width="30" height="30" as="geometry" />
        </mxCell>
        <mxCell id="-bEd97YxeEwS5Az2jaos-307" value="" style="rounded=1;whiteSpace=wrap;html=1;fillColor=#dae8fc;strokeColor=#6c8ebf;" vertex="1" parent="1">
          <mxGeometry x="520" y="410" width="180" height="50" as="geometry" />
        </mxCell>
        <mxCell id="-bEd97YxeEwS5Az2jaos-308" value="SF7" style="ellipse;whiteSpace=wrap;html=1;aspect=fixed;labelBackgroundColor=#FFB366;fillColor=#ffe6cc;strokeColor=#d79b00;" vertex="1" parent="1">
          <mxGeometry x="520" y="430" width="30" height="30" as="geometry" />
        </mxCell>
        <mxCell id="-bEd97YxeEwS5Az2jaos-309" value="SF8" style="ellipse;whiteSpace=wrap;html=1;aspect=fixed;labelBackgroundColor=#FFB366;fillColor=#ffe6cc;strokeColor=#d79b00;" vertex="1" parent="1">
          <mxGeometry x="550" y="430" width="30" height="30" as="geometry" />
        </mxCell>
        <mxCell id="-bEd97YxeEwS5Az2jaos-310" value="SF9" style="ellipse;whiteSpace=wrap;html=1;aspect=fixed;labelBackgroundColor=#FFB366;fillColor=#ffe6cc;strokeColor=#d79b00;" vertex="1" parent="1">
          <mxGeometry x="580" y="430" width="30" height="30" as="geometry" />
        </mxCell>
        <mxCell id="-bEd97YxeEwS5Az2jaos-311" value="867.0 МГц" style="text;html=1;strokeColor=none;fillColor=none;align=center;verticalAlign=middle;whiteSpace=wrap;rounded=0;fontSize=14;fontStyle=1" vertex="1" parent="1">
          <mxGeometry x="580" y="410" width="80" height="20" as="geometry" />
        </mxCell>
        <mxCell id="-bEd97YxeEwS5Az2jaos-315" value="" style="rounded=1;whiteSpace=wrap;html=1;fillColor=#dae8fc;strokeColor=#6c8ebf;" vertex="1" parent="1">
          <mxGeometry x="520" y="470" width="180" height="50" as="geometry" />
        </mxCell>
        <mxCell id="-bEd97YxeEwS5Az2jaos-316" value="SF7" style="ellipse;whiteSpace=wrap;html=1;aspect=fixed;labelBackgroundColor=#FFB366;fillColor=#ffe6cc;strokeColor=#d79b00;" vertex="1" parent="1">
          <mxGeometry x="520" y="490" width="30" height="30" as="geometry" />
        </mxCell>
        <mxCell id="-bEd97YxeEwS5Az2jaos-317" value="SF8" style="ellipse;whiteSpace=wrap;html=1;aspect=fixed;labelBackgroundColor=#FFB366;fillColor=#ffe6cc;strokeColor=#d79b00;" vertex="1" parent="1">
          <mxGeometry x="550" y="490" width="30" height="30" as="geometry" />
        </mxCell>
        <mxCell id="-bEd97YxeEwS5Az2jaos-318" value="SF9" style="ellipse;whiteSpace=wrap;html=1;aspect=fixed;labelBackgroundColor=#FFB366;fillColor=#ffe6cc;strokeColor=#d79b00;" vertex="1" parent="1">
          <mxGeometry x="580" y="490" width="30" height="30" as="geometry" />
        </mxCell>
        <mxCell id="-bEd97YxeEwS5Az2jaos-319" value="867.2 МГц" style="text;html=1;strokeColor=none;fillColor=none;align=center;verticalAlign=middle;whiteSpace=wrap;rounded=0;fontSize=14;fontStyle=1" vertex="1" parent="1">
          <mxGeometry x="580" y="470" width="80" height="20" as="geometry" />
        </mxCell>
        <mxCell id="-bEd97YxeEwS5Az2jaos-323" value="" style="rounded=1;whiteSpace=wrap;html=1;fillColor=#dae8fc;strokeColor=#6c8ebf;" vertex="1" parent="1">
          <mxGeometry x="720" y="410" width="180" height="50" as="geometry" />
        </mxCell>
        <mxCell id="-bEd97YxeEwS5Az2jaos-324" value="SF7" style="ellipse;whiteSpace=wrap;html=1;aspect=fixed;labelBackgroundColor=#FFB366;fillColor=#ffe6cc;strokeColor=#d79b00;" vertex="1" parent="1">
          <mxGeometry x="720" y="430" width="30" height="30" as="geometry" />
        </mxCell>
        <mxCell id="-bEd97YxeEwS5Az2jaos-325" value="SF8" style="ellipse;whiteSpace=wrap;html=1;aspect=fixed;labelBackgroundColor=#FFB366;fillColor=#ffe6cc;strokeColor=#d79b00;" vertex="1" parent="1">
          <mxGeometry x="750" y="430" width="30" height="30" as="geometry" />
        </mxCell>
        <mxCell id="-bEd97YxeEwS5Az2jaos-326" value="SF9" style="ellipse;whiteSpace=wrap;html=1;aspect=fixed;labelBackgroundColor=#FFB366;fillColor=#ffe6cc;strokeColor=#d79b00;" vertex="1" parent="1">
          <mxGeometry x="780" y="430" width="30" height="30" as="geometry" />
        </mxCell>
        <mxCell id="-bEd97YxeEwS5Az2jaos-327" value="868.9 МГц" style="text;html=1;strokeColor=none;fillColor=none;align=center;verticalAlign=middle;whiteSpace=wrap;rounded=0;fontSize=14;fontStyle=1" vertex="1" parent="1">
          <mxGeometry x="780" y="410" width="80" height="20" as="geometry" />
        </mxCell>
        <mxCell id="-bEd97YxeEwS5Az2jaos-328" value="SF10" style="ellipse;whiteSpace=wrap;html=1;aspect=fixed;labelBackgroundColor=#FFB366;fillColor=#ffe6cc;strokeColor=#d79b00;" vertex="1" parent="1">
          <mxGeometry x="810" y="430" width="30" height="30" as="geometry" />
        </mxCell>
        <mxCell id="-bEd97YxeEwS5Az2jaos-329" value="SF11" style="ellipse;whiteSpace=wrap;html=1;aspect=fixed;labelBackgroundColor=#FFB366;fillColor=#ffe6cc;strokeColor=#d79b00;" vertex="1" parent="1">
          <mxGeometry x="840" y="430" width="30" height="30" as="geometry" />
        </mxCell>
        <mxCell id="-bEd97YxeEwS5Az2jaos-330" value="SF12" style="ellipse;whiteSpace=wrap;html=1;aspect=fixed;labelBackgroundColor=#FFB366;fillColor=#ffe6cc;strokeColor=#d79b00;" vertex="1" parent="1">
          <mxGeometry x="870" y="430" width="30" height="30" as="geometry" />
        </mxCell>
        <mxCell id="-bEd97YxeEwS5Az2jaos-331" value="" style="rounded=1;whiteSpace=wrap;html=1;fillColor=#dae8fc;strokeColor=#6c8ebf;" vertex="1" parent="1">
          <mxGeometry x="720" y="470" width="180" height="50" as="geometry" />
        </mxCell>
        <mxCell id="-bEd97YxeEwS5Az2jaos-332" value="SF7" style="ellipse;whiteSpace=wrap;html=1;aspect=fixed;labelBackgroundColor=#FFB366;fillColor=#ffe6cc;strokeColor=#d79b00;" vertex="1" parent="1">
          <mxGeometry x="720" y="490" width="30" height="30" as="geometry" />
        </mxCell>
        <mxCell id="-bEd97YxeEwS5Az2jaos-333" value="SF8" style="ellipse;whiteSpace=wrap;html=1;aspect=fixed;labelBackgroundColor=#FFB366;fillColor=#ffe6cc;strokeColor=#d79b00;" vertex="1" parent="1">
          <mxGeometry x="750" y="490" width="30" height="30" as="geometry" />
        </mxCell>
        <mxCell id="-bEd97YxeEwS5Az2jaos-334" value="SF9" style="ellipse;whiteSpace=wrap;html=1;aspect=fixed;labelBackgroundColor=#FFB366;fillColor=#ffe6cc;strokeColor=#d79b00;" vertex="1" parent="1">
          <mxGeometry x="780" y="490" width="30" height="30" as="geometry" />
        </mxCell>
        <mxCell id="-bEd97YxeEwS5Az2jaos-335" value="869.1 МГц" style="text;html=1;strokeColor=none;fillColor=none;align=center;verticalAlign=middle;whiteSpace=wrap;rounded=0;fontSize=14;fontStyle=1" vertex="1" parent="1">
          <mxGeometry x="780" y="470" width="80" height="20" as="geometry" />
        </mxCell>
        <mxCell id="-bEd97YxeEwS5Az2jaos-336" value="SF10" style="ellipse;whiteSpace=wrap;html=1;aspect=fixed;labelBackgroundColor=#FFB366;fillColor=#ffe6cc;strokeColor=#d79b00;" vertex="1" parent="1">
          <mxGeometry x="810" y="490" width="30" height="30" as="geometry" />
        </mxCell>
        <mxCell id="-bEd97YxeEwS5Az2jaos-337" value="SF11" style="ellipse;whiteSpace=wrap;html=1;aspect=fixed;labelBackgroundColor=#FFB366;fillColor=#ffe6cc;strokeColor=#d79b00;" vertex="1" parent="1">
          <mxGeometry x="840" y="490" width="30" height="30" as="geometry" />
        </mxCell>
        <mxCell id="-bEd97YxeEwS5Az2jaos-338" value="SF12" style="ellipse;whiteSpace=wrap;html=1;aspect=fixed;labelBackgroundColor=#FFB366;fillColor=#ffe6cc;strokeColor=#d79b00;" vertex="1" parent="1">
          <mxGeometry x="870" y="490" width="30" height="30" as="geometry" />
        </mxCell>
        <mxCell id="-bEd97YxeEwS5Az2jaos-339" value="" style="rounded=1;whiteSpace=wrap;html=1;fillColor=#dae8fc;strokeColor=#6c8ebf;" vertex="1" parent="1">
          <mxGeometry x="720" y="410" width="180" height="50" as="geometry" />
        </mxCell>
        <mxCell id="-bEd97YxeEwS5Az2jaos-340" value="SF7" style="ellipse;whiteSpace=wrap;html=1;aspect=fixed;labelBackgroundColor=#FFB366;fillColor=#ffe6cc;strokeColor=#d79b00;" vertex="1" parent="1">
          <mxGeometry x="720" y="430" width="30" height="30" as="geometry" />
        </mxCell>
        <mxCell id="-bEd97YxeEwS5Az2jaos-341" value="SF8" style="ellipse;whiteSpace=wrap;html=1;aspect=fixed;labelBackgroundColor=#FFB366;fillColor=#ffe6cc;strokeColor=#d79b00;" vertex="1" parent="1">
          <mxGeometry x="750" y="430" width="30" height="30" as="geometry" />
        </mxCell>
        <mxCell id="-bEd97YxeEwS5Az2jaos-342" value="SF9" style="ellipse;whiteSpace=wrap;html=1;aspect=fixed;labelBackgroundColor=#FFB366;fillColor=#ffe6cc;strokeColor=#d79b00;" vertex="1" parent="1">
          <mxGeometry x="780" y="430" width="30" height="30" as="geometry" />
        </mxCell>
        <mxCell id="-bEd97YxeEwS5Az2jaos-343" value="868.9 МГц" style="text;html=1;strokeColor=none;fillColor=none;align=center;verticalAlign=middle;whiteSpace=wrap;rounded=0;fontSize=14;fontStyle=1" vertex="1" parent="1">
          <mxGeometry x="780" y="410" width="80" height="20" as="geometry" />
        </mxCell>
        <mxCell id="-bEd97YxeEwS5Az2jaos-344" value="SF10" style="ellipse;whiteSpace=wrap;html=1;aspect=fixed;labelBackgroundColor=#FFB366;fillColor=#ffe6cc;strokeColor=#d79b00;" vertex="1" parent="1">
          <mxGeometry x="810" y="430" width="30" height="30" as="geometry" />
        </mxCell>
        <mxCell id="-bEd97YxeEwS5Az2jaos-345" value="SF11" style="ellipse;whiteSpace=wrap;html=1;aspect=fixed;labelBackgroundColor=#FFB366;fillColor=#ffe6cc;strokeColor=#d79b00;" vertex="1" parent="1">
          <mxGeometry x="840" y="430" width="30" height="30" as="geometry" />
        </mxCell>
        <mxCell id="-bEd97YxeEwS5Az2jaos-346" value="SF12" style="ellipse;whiteSpace=wrap;html=1;aspect=fixed;labelBackgroundColor=#FFB366;fillColor=#ffe6cc;strokeColor=#d79b00;" vertex="1" parent="1">
          <mxGeometry x="870" y="430" width="30" height="30" as="geometry" />
        </mxCell>
        <mxCell id="-bEd97YxeEwS5Az2jaos-347" value="" style="rounded=1;whiteSpace=wrap;html=1;fillColor=#dae8fc;strokeColor=#6c8ebf;" vertex="1" parent="1">
          <mxGeometry x="720" y="470" width="180" height="50" as="geometry" />
        </mxCell>
        <mxCell id="-bEd97YxeEwS5Az2jaos-348" value="SF7" style="ellipse;whiteSpace=wrap;html=1;aspect=fixed;labelBackgroundColor=#FFB366;fillColor=#ffe6cc;strokeColor=#d79b00;" vertex="1" parent="1">
          <mxGeometry x="720" y="490" width="30" height="30" as="geometry" />
        </mxCell>
        <mxCell id="-bEd97YxeEwS5Az2jaos-349" value="SF8" style="ellipse;whiteSpace=wrap;html=1;aspect=fixed;labelBackgroundColor=#FFB366;fillColor=#ffe6cc;strokeColor=#d79b00;" vertex="1" parent="1">
          <mxGeometry x="750" y="490" width="30" height="30" as="geometry" />
        </mxCell>
        <mxCell id="-bEd97YxeEwS5Az2jaos-350" value="SF9" style="ellipse;whiteSpace=wrap;html=1;aspect=fixed;labelBackgroundColor=#FFB366;fillColor=#ffe6cc;strokeColor=#d79b00;" vertex="1" parent="1">
          <mxGeometry x="780" y="490" width="30" height="30" as="geometry" />
        </mxCell>
        <mxCell id="-bEd97YxeEwS5Az2jaos-351" value="869.1 МГц" style="text;html=1;strokeColor=none;fillColor=none;align=center;verticalAlign=middle;whiteSpace=wrap;rounded=0;fontSize=14;fontStyle=1" vertex="1" parent="1">
          <mxGeometry x="780" y="470" width="80" height="20" as="geometry" />
        </mxCell>
        <mxCell id="-bEd97YxeEwS5Az2jaos-352" value="SF10" style="ellipse;whiteSpace=wrap;html=1;aspect=fixed;labelBackgroundColor=#FFB366;fillColor=#ffe6cc;strokeColor=#d79b00;" vertex="1" parent="1">
          <mxGeometry x="810" y="490" width="30" height="30" as="geometry" />
        </mxCell>
        <mxCell id="-bEd97YxeEwS5Az2jaos-353" value="SF11" style="ellipse;whiteSpace=wrap;html=1;aspect=fixed;labelBackgroundColor=#FFB366;fillColor=#ffe6cc;strokeColor=#d79b00;" vertex="1" parent="1">
          <mxGeometry x="840" y="490" width="30" height="30" as="geometry" />
        </mxCell>
        <mxCell id="-bEd97YxeEwS5Az2jaos-354" value="SF12" style="ellipse;whiteSpace=wrap;html=1;aspect=fixed;labelBackgroundColor=#FFB366;fillColor=#ffe6cc;strokeColor=#d79b00;" vertex="1" parent="1">
          <mxGeometry x="870" y="490" width="30" height="30" as="geometry" />
        </mxCell>
        <mxCell id="-bEd97YxeEwS5Az2jaos-355" value="" style="rounded=1;whiteSpace=wrap;html=1;fillColor=#dae8fc;strokeColor=#6c8ebf;" vertex="1" parent="1">
          <mxGeometry x="720" y="410" width="180" height="50" as="geometry" />
        </mxCell>
        <mxCell id="-bEd97YxeEwS5Az2jaos-356" value="SF7" style="ellipse;whiteSpace=wrap;html=1;aspect=fixed;labelBackgroundColor=#FFB366;fillColor=#ffe6cc;strokeColor=#d79b00;" vertex="1" parent="1">
          <mxGeometry x="720" y="430" width="30" height="30" as="geometry" />
        </mxCell>
        <mxCell id="-bEd97YxeEwS5Az2jaos-357" value="SF8" style="ellipse;whiteSpace=wrap;html=1;aspect=fixed;labelBackgroundColor=#FFB366;fillColor=#ffe6cc;strokeColor=#d79b00;" vertex="1" parent="1">
          <mxGeometry x="750" y="430" width="30" height="30" as="geometry" />
        </mxCell>
        <mxCell id="-bEd97YxeEwS5Az2jaos-358" value="SF9" style="ellipse;whiteSpace=wrap;html=1;aspect=fixed;labelBackgroundColor=#FFB366;fillColor=#ffe6cc;strokeColor=#d79b00;" vertex="1" parent="1">
          <mxGeometry x="780" y="430" width="30" height="30" as="geometry" />
        </mxCell>
        <mxCell id="-bEd97YxeEwS5Az2jaos-359" value="868.9 МГц" style="text;html=1;strokeColor=none;fillColor=none;align=center;verticalAlign=middle;whiteSpace=wrap;rounded=0;fontSize=14;fontStyle=1" vertex="1" parent="1">
          <mxGeometry x="780" y="410" width="80" height="20" as="geometry" />
        </mxCell>
        <mxCell id="-bEd97YxeEwS5Az2jaos-360" value="SF10" style="ellipse;whiteSpace=wrap;html=1;aspect=fixed;labelBackgroundColor=#FFB366;fillColor=#ffe6cc;strokeColor=#d79b00;" vertex="1" parent="1">
          <mxGeometry x="810" y="430" width="30" height="30" as="geometry" />
        </mxCell>
        <mxCell id="-bEd97YxeEwS5Az2jaos-361" value="SF11" style="ellipse;whiteSpace=wrap;html=1;aspect=fixed;labelBackgroundColor=#FFB366;fillColor=#ffe6cc;strokeColor=#d79b00;" vertex="1" parent="1">
          <mxGeometry x="840" y="430" width="30" height="30" as="geometry" />
        </mxCell>
        <mxCell id="-bEd97YxeEwS5Az2jaos-362" value="SF12" style="ellipse;whiteSpace=wrap;html=1;aspect=fixed;labelBackgroundColor=#FFB366;fillColor=#ffe6cc;strokeColor=#d79b00;" vertex="1" parent="1">
          <mxGeometry x="870" y="430" width="30" height="30" as="geometry" />
        </mxCell>
        <mxCell id="-bEd97YxeEwS5Az2jaos-363" value="" style="rounded=1;whiteSpace=wrap;html=1;fillColor=#dae8fc;strokeColor=#6c8ebf;" vertex="1" parent="1">
          <mxGeometry x="720" y="470" width="180" height="50" as="geometry" />
        </mxCell>
        <mxCell id="-bEd97YxeEwS5Az2jaos-364" value="SF7" style="ellipse;whiteSpace=wrap;html=1;aspect=fixed;labelBackgroundColor=#FFB366;fillColor=#ffe6cc;strokeColor=#d79b00;" vertex="1" parent="1">
          <mxGeometry x="720" y="490" width="30" height="30" as="geometry" />
        </mxCell>
        <mxCell id="-bEd97YxeEwS5Az2jaos-365" value="SF8" style="ellipse;whiteSpace=wrap;html=1;aspect=fixed;labelBackgroundColor=#FFB366;fillColor=#ffe6cc;strokeColor=#d79b00;" vertex="1" parent="1">
          <mxGeometry x="750" y="490" width="30" height="30" as="geometry" />
        </mxCell>
        <mxCell id="-bEd97YxeEwS5Az2jaos-366" value="SF9" style="ellipse;whiteSpace=wrap;html=1;aspect=fixed;labelBackgroundColor=#FFB366;fillColor=#ffe6cc;strokeColor=#d79b00;" vertex="1" parent="1">
          <mxGeometry x="780" y="490" width="30" height="30" as="geometry" />
        </mxCell>
        <mxCell id="-bEd97YxeEwS5Az2jaos-367" value="869.1 МГц" style="text;html=1;strokeColor=none;fillColor=none;align=center;verticalAlign=middle;whiteSpace=wrap;rounded=0;fontSize=14;fontStyle=1" vertex="1" parent="1">
          <mxGeometry x="780" y="470" width="80" height="20" as="geometry" />
        </mxCell>
        <mxCell id="-bEd97YxeEwS5Az2jaos-368" value="SF10" style="ellipse;whiteSpace=wrap;html=1;aspect=fixed;labelBackgroundColor=#FFB366;fillColor=#ffe6cc;strokeColor=#d79b00;" vertex="1" parent="1">
          <mxGeometry x="810" y="490" width="30" height="30" as="geometry" />
        </mxCell>
        <mxCell id="-bEd97YxeEwS5Az2jaos-369" value="SF11" style="ellipse;whiteSpace=wrap;html=1;aspect=fixed;labelBackgroundColor=#FFB366;fillColor=#ffe6cc;strokeColor=#d79b00;" vertex="1" parent="1">
          <mxGeometry x="840" y="490" width="30" height="30" as="geometry" />
        </mxCell>
        <mxCell id="-bEd97YxeEwS5Az2jaos-370" value="SF12" style="ellipse;whiteSpace=wrap;html=1;aspect=fixed;labelBackgroundColor=#FFB366;fillColor=#ffe6cc;strokeColor=#d79b00;" vertex="1" parent="1">
          <mxGeometry x="870" y="490" width="30" height="30" as="geometry" />
        </mxCell>
        <mxCell id="-bEd97YxeEwS5Az2jaos-371" value="" style="rounded=1;whiteSpace=wrap;html=1;fillColor=#dae8fc;strokeColor=#6c8ebf;" vertex="1" parent="1">
          <mxGeometry x="720" y="410" width="180" height="50" as="geometry" />
        </mxCell>
        <mxCell id="-bEd97YxeEwS5Az2jaos-372" value="SF7" style="ellipse;whiteSpace=wrap;html=1;aspect=fixed;labelBackgroundColor=#FFB366;fillColor=#ffe6cc;strokeColor=#d79b00;" vertex="1" parent="1">
          <mxGeometry x="720" y="430" width="30" height="30" as="geometry" />
        </mxCell>
        <mxCell id="-bEd97YxeEwS5Az2jaos-373" value="SF8" style="ellipse;whiteSpace=wrap;html=1;aspect=fixed;labelBackgroundColor=#FFB366;fillColor=#ffe6cc;strokeColor=#d79b00;" vertex="1" parent="1">
          <mxGeometry x="750" y="430" width="30" height="30" as="geometry" />
        </mxCell>
        <mxCell id="-bEd97YxeEwS5Az2jaos-374" value="SF9" style="ellipse;whiteSpace=wrap;html=1;aspect=fixed;labelBackgroundColor=#FFB366;fillColor=#ffe6cc;strokeColor=#d79b00;" vertex="1" parent="1">
          <mxGeometry x="780" y="430" width="30" height="30" as="geometry" />
        </mxCell>
        <mxCell id="-bEd97YxeEwS5Az2jaos-375" value="867.4 МГц" style="text;html=1;strokeColor=none;fillColor=none;align=center;verticalAlign=middle;whiteSpace=wrap;rounded=0;fontSize=14;fontStyle=1" vertex="1" parent="1">
          <mxGeometry x="780" y="410" width="80" height="20" as="geometry" />
        </mxCell>
        <mxCell id="-bEd97YxeEwS5Az2jaos-379" value="" style="rounded=1;whiteSpace=wrap;html=1;fillColor=#dae8fc;strokeColor=#6c8ebf;" vertex="1" parent="1">
          <mxGeometry x="720" y="470" width="180" height="50" as="geometry" />
        </mxCell>
        <mxCell id="-bEd97YxeEwS5Az2jaos-380" value="SF7" style="ellipse;whiteSpace=wrap;html=1;aspect=fixed;labelBackgroundColor=#FFB366;fillColor=#ffe6cc;strokeColor=#d79b00;" vertex="1" parent="1">
          <mxGeometry x="720" y="490" width="30" height="30" as="geometry" />
        </mxCell>
        <mxCell id="-bEd97YxeEwS5Az2jaos-381" value="SF8" style="ellipse;whiteSpace=wrap;html=1;aspect=fixed;labelBackgroundColor=#FFB366;fillColor=#ffe6cc;strokeColor=#d79b00;" vertex="1" parent="1">
          <mxGeometry x="750" y="490" width="30" height="30" as="geometry" />
        </mxCell>
        <mxCell id="-bEd97YxeEwS5Az2jaos-382" value="SF9" style="ellipse;whiteSpace=wrap;html=1;aspect=fixed;labelBackgroundColor=#FFB366;fillColor=#ffe6cc;strokeColor=#d79b00;" vertex="1" parent="1">
          <mxGeometry x="780" y="490" width="30" height="30" as="geometry" />
        </mxCell>
        <mxCell id="-bEd97YxeEwS5Az2jaos-383" value="867.6 МГц" style="text;html=1;strokeColor=none;fillColor=none;align=center;verticalAlign=middle;whiteSpace=wrap;rounded=0;fontSize=14;fontStyle=1" vertex="1" parent="1">
          <mxGeometry x="780" y="470" width="80" height="20" as="geometry" />
        </mxCell>
        <mxCell id="-bEd97YxeEwS5Az2jaos-387" value="" style="rounded=1;whiteSpace=wrap;html=1;fillColor=#dae8fc;strokeColor=#6c8ebf;" vertex="1" parent="1">
          <mxGeometry x="720" y="530" width="180" height="50" as="geometry" />
        </mxCell>
        <mxCell id="-bEd97YxeEwS5Az2jaos-388" value="SF7" style="ellipse;whiteSpace=wrap;html=1;aspect=fixed;labelBackgroundColor=#FFB366;fillColor=#ffe6cc;strokeColor=#d79b00;" vertex="1" parent="1">
          <mxGeometry x="720" y="550" width="30" height="30" as="geometry" />
        </mxCell>
        <mxCell id="-bEd97YxeEwS5Az2jaos-389" value="SF8" style="ellipse;whiteSpace=wrap;html=1;aspect=fixed;labelBackgroundColor=#FFB366;fillColor=#ffe6cc;strokeColor=#d79b00;" vertex="1" parent="1">
          <mxGeometry x="750" y="550" width="30" height="30" as="geometry" />
        </mxCell>
        <mxCell id="-bEd97YxeEwS5Az2jaos-390" value="SF9" style="ellipse;whiteSpace=wrap;html=1;aspect=fixed;labelBackgroundColor=#FFB366;fillColor=#ffe6cc;strokeColor=#d79b00;" vertex="1" parent="1">
          <mxGeometry x="780" y="550" width="30" height="30" as="geometry" />
        </mxCell>
        <mxCell id="-bEd97YxeEwS5Az2jaos-391" value="869.1 МГц" style="text;html=1;strokeColor=none;fillColor=none;align=center;verticalAlign=middle;whiteSpace=wrap;rounded=0;fontSize=14;fontStyle=1" vertex="1" parent="1">
          <mxGeometry x="780" y="530" width="80" height="20" as="geometry" />
        </mxCell>
        <mxCell id="-bEd97YxeEwS5Az2jaos-392" value="SF10" style="ellipse;whiteSpace=wrap;html=1;aspect=fixed;labelBackgroundColor=#FFB366;fillColor=#ffe6cc;strokeColor=#d79b00;" vertex="1" parent="1">
          <mxGeometry x="810" y="550" width="30" height="30" as="geometry" />
        </mxCell>
        <mxCell id="-bEd97YxeEwS5Az2jaos-393" value="SF11" style="ellipse;whiteSpace=wrap;html=1;aspect=fixed;labelBackgroundColor=#FFB366;fillColor=#ffe6cc;strokeColor=#d79b00;" vertex="1" parent="1">
          <mxGeometry x="840" y="550" width="30" height="30" as="geometry" />
        </mxCell>
        <mxCell id="-bEd97YxeEwS5Az2jaos-394" value="SF12" style="ellipse;whiteSpace=wrap;html=1;aspect=fixed;labelBackgroundColor=#FFB366;fillColor=#ffe6cc;strokeColor=#d79b00;" vertex="1" parent="1">
          <mxGeometry x="870" y="550" width="30" height="30" as="geometry" />
        </mxCell>
        <mxCell id="-bEd97YxeEwS5Az2jaos-395" value="" style="rounded=1;whiteSpace=wrap;html=1;fillColor=#dae8fc;strokeColor=#6c8ebf;" vertex="1" parent="1">
          <mxGeometry x="720" y="530" width="180" height="50" as="geometry" />
        </mxCell>
        <mxCell id="-bEd97YxeEwS5Az2jaos-396" value="SF7" style="ellipse;whiteSpace=wrap;html=1;aspect=fixed;labelBackgroundColor=#FFB366;fillColor=#ffe6cc;strokeColor=#d79b00;" vertex="1" parent="1">
          <mxGeometry x="720" y="550" width="30" height="30" as="geometry" />
        </mxCell>
        <mxCell id="-bEd97YxeEwS5Az2jaos-397" value="SF8" style="ellipse;whiteSpace=wrap;html=1;aspect=fixed;labelBackgroundColor=#FFB366;fillColor=#ffe6cc;strokeColor=#d79b00;" vertex="1" parent="1">
          <mxGeometry x="750" y="550" width="30" height="30" as="geometry" />
        </mxCell>
        <mxCell id="-bEd97YxeEwS5Az2jaos-398" value="SF9" style="ellipse;whiteSpace=wrap;html=1;aspect=fixed;labelBackgroundColor=#FFB366;fillColor=#ffe6cc;strokeColor=#d79b00;" vertex="1" parent="1">
          <mxGeometry x="780" y="550" width="30" height="30" as="geometry" />
        </mxCell>
        <mxCell id="-bEd97YxeEwS5Az2jaos-399" value="869.1 МГц" style="text;html=1;strokeColor=none;fillColor=none;align=center;verticalAlign=middle;whiteSpace=wrap;rounded=0;fontSize=14;fontStyle=1" vertex="1" parent="1">
          <mxGeometry x="780" y="530" width="80" height="20" as="geometry" />
        </mxCell>
        <mxCell id="-bEd97YxeEwS5Az2jaos-400" value="SF10" style="ellipse;whiteSpace=wrap;html=1;aspect=fixed;labelBackgroundColor=#FFB366;fillColor=#ffe6cc;strokeColor=#d79b00;" vertex="1" parent="1">
          <mxGeometry x="810" y="550" width="30" height="30" as="geometry" />
        </mxCell>
        <mxCell id="-bEd97YxeEwS5Az2jaos-401" value="SF11" style="ellipse;whiteSpace=wrap;html=1;aspect=fixed;labelBackgroundColor=#FFB366;fillColor=#ffe6cc;strokeColor=#d79b00;" vertex="1" parent="1">
          <mxGeometry x="840" y="550" width="30" height="30" as="geometry" />
        </mxCell>
        <mxCell id="-bEd97YxeEwS5Az2jaos-402" value="SF12" style="ellipse;whiteSpace=wrap;html=1;aspect=fixed;labelBackgroundColor=#FFB366;fillColor=#ffe6cc;strokeColor=#d79b00;" vertex="1" parent="1">
          <mxGeometry x="870" y="550" width="30" height="30" as="geometry" />
        </mxCell>
        <mxCell id="-bEd97YxeEwS5Az2jaos-403" value="" style="rounded=1;whiteSpace=wrap;html=1;fillColor=#dae8fc;strokeColor=#6c8ebf;" vertex="1" parent="1">
          <mxGeometry x="720" y="530" width="180" height="50" as="geometry" />
        </mxCell>
        <mxCell id="-bEd97YxeEwS5Az2jaos-404" value="SF7" style="ellipse;whiteSpace=wrap;html=1;aspect=fixed;labelBackgroundColor=#FFB366;fillColor=#ffe6cc;strokeColor=#d79b00;" vertex="1" parent="1">
          <mxGeometry x="720" y="550" width="30" height="30" as="geometry" />
        </mxCell>
        <mxCell id="-bEd97YxeEwS5Az2jaos-405" value="SF8" style="ellipse;whiteSpace=wrap;html=1;aspect=fixed;labelBackgroundColor=#FFB366;fillColor=#ffe6cc;strokeColor=#d79b00;" vertex="1" parent="1">
          <mxGeometry x="750" y="550" width="30" height="30" as="geometry" />
        </mxCell>
        <mxCell id="-bEd97YxeEwS5Az2jaos-406" value="SF9" style="ellipse;whiteSpace=wrap;html=1;aspect=fixed;labelBackgroundColor=#FFB366;fillColor=#ffe6cc;strokeColor=#d79b00;" vertex="1" parent="1">
          <mxGeometry x="780" y="550" width="30" height="30" as="geometry" />
        </mxCell>
        <mxCell id="-bEd97YxeEwS5Az2jaos-407" value="869.1 МГц" style="text;html=1;strokeColor=none;fillColor=none;align=center;verticalAlign=middle;whiteSpace=wrap;rounded=0;fontSize=14;fontStyle=1" vertex="1" parent="1">
          <mxGeometry x="780" y="530" width="80" height="20" as="geometry" />
        </mxCell>
        <mxCell id="-bEd97YxeEwS5Az2jaos-408" value="SF10" style="ellipse;whiteSpace=wrap;html=1;aspect=fixed;labelBackgroundColor=#FFB366;fillColor=#ffe6cc;strokeColor=#d79b00;" vertex="1" parent="1">
          <mxGeometry x="810" y="550" width="30" height="30" as="geometry" />
        </mxCell>
        <mxCell id="-bEd97YxeEwS5Az2jaos-409" value="SF11" style="ellipse;whiteSpace=wrap;html=1;aspect=fixed;labelBackgroundColor=#FFB366;fillColor=#ffe6cc;strokeColor=#d79b00;" vertex="1" parent="1">
          <mxGeometry x="840" y="550" width="30" height="30" as="geometry" />
        </mxCell>
        <mxCell id="-bEd97YxeEwS5Az2jaos-410" value="SF12" style="ellipse;whiteSpace=wrap;html=1;aspect=fixed;labelBackgroundColor=#FFB366;fillColor=#ffe6cc;strokeColor=#d79b00;" vertex="1" parent="1">
          <mxGeometry x="870" y="550" width="30" height="30" as="geometry" />
        </mxCell>
        <mxCell id="-bEd97YxeEwS5Az2jaos-411" value="" style="rounded=1;whiteSpace=wrap;html=1;fillColor=#dae8fc;strokeColor=#6c8ebf;" vertex="1" parent="1">
          <mxGeometry x="720" y="530" width="180" height="50" as="geometry" />
        </mxCell>
        <mxCell id="-bEd97YxeEwS5Az2jaos-412" value="SF7" style="ellipse;whiteSpace=wrap;html=1;aspect=fixed;labelBackgroundColor=#FFB366;fillColor=#ffe6cc;strokeColor=#d79b00;" vertex="1" parent="1">
          <mxGeometry x="720" y="550" width="30" height="30" as="geometry" />
        </mxCell>
        <mxCell id="-bEd97YxeEwS5Az2jaos-413" value="SF8" style="ellipse;whiteSpace=wrap;html=1;aspect=fixed;labelBackgroundColor=#FFB366;fillColor=#ffe6cc;strokeColor=#d79b00;" vertex="1" parent="1">
          <mxGeometry x="750" y="550" width="30" height="30" as="geometry" />
        </mxCell>
        <mxCell id="-bEd97YxeEwS5Az2jaos-414" value="SF9" style="ellipse;whiteSpace=wrap;html=1;aspect=fixed;labelBackgroundColor=#FFB366;fillColor=#ffe6cc;strokeColor=#d79b00;" vertex="1" parent="1">
          <mxGeometry x="780" y="550" width="30" height="30" as="geometry" />
        </mxCell>
        <mxCell id="-bEd97YxeEwS5Az2jaos-415" value="867.8 МГц" style="text;html=1;strokeColor=none;fillColor=none;align=center;verticalAlign=middle;whiteSpace=wrap;rounded=0;fontSize=14;fontStyle=1" vertex="1" parent="1">
          <mxGeometry x="780" y="530" width="80" height="20" as="geometry" />
        </mxCell>
        <mxCell id="-bEd97YxeEwS5Az2jaos-420" value="&lt;div&gt;Датчик в сети - ожидаемая &lt;br&gt;&lt;/div&gt;&lt;div&gt;(правильная) реализация&lt;br&gt;&lt;/div&gt;" style="text;html=1;strokeColor=none;fillColor=none;align=center;verticalAlign=middle;whiteSpace=wrap;rounded=0;labelBackgroundColor=none;fontSize=17;fontStyle=1" vertex="1" parent="1">
          <mxGeometry x="320" y="530" width="370" height="70" as="geometry" />
        </mxCell>
        <mxCell id="-bEd97YxeEwS5Az2jaos-421" value="" style="endArrow=classic;html=1;fontSize=16;" edge="1" parent="1">
          <mxGeometry width="50" height="50" relative="1" as="geometry">
            <mxPoint x="160" y="280" as="sourcePoint" />
            <mxPoint x="390" y="380" as="targetPoint" />
          </mxGeometry>
        </mxCell>
        <mxCell id="-bEd97YxeEwS5Az2jaos-422" value="3" style="ellipse;whiteSpace=wrap;html=1;aspect=fixed;labelBackgroundColor=none;fontSize=16;fillColor=#d5e8d4;strokeColor=#82b366;" vertex="1" parent="1">
          <mxGeometry x="320" y="320" width="30" height="30" as="geometry" />
        </mxCell>
        <mxCell id="-bEd97YxeEwS5Az2jaos-429" value="" style="rounded=0;whiteSpace=wrap;html=1;labelBackgroundColor=none;fontSize=14;fillColor=none;" vertex="1" parent="1">
          <mxGeometry x="310" y="390" width="600" height="220" as="geometry" />
        </mxCell>
      </root>
    </mxGraphModel>
  </diagram>
</mxfile>
